<svg width="16" height="16" viewBox="0 0 16 16" fill="none" xmlns="http://www.w3.org/2000/svg">
<path d="M15.6916 0.308398C15.2804 -0.102799 14.6139 -0.102799 14.203 0.308398L8 6.51136L1.79704 0.308398C1.38584 -0.102799 0.719376 -0.102799 0.308398 0.308398C-0.102799 0.719596 -0.102799 1.38606 0.308398 1.79704L6.51136 8L0.308398 14.203C-0.102799 14.6139 -0.102799 15.2806 0.308398 15.6916C0.719596 16.1028 1.38606 16.1028 1.79704 15.6916L8 9.48864L14.203 15.6916C14.6142 16.1028 15.2806 16.1026 15.6916 15.6916C16.1028 15.2804 16.1028 14.6139 15.6916 14.203L9.48864 8L15.6916 1.79704C16.1028 1.38584 16.1028 0.719376 15.6916 0.308398Z" fill="black"/>
</svg>
