<svg width="24" height="24" viewBox="0 0 24 24" fill="none" xmlns="http://www.w3.org/2000/svg">
<path d="M3.59929 24.0002H18.9406C20.9253 24.0002 22.54 22.3855 22.54 20.4008C22.54 18.711 21.393 17.2825 19.7741 16.9025C19.7865 16.7575 19.7925 16.6227 19.7925 16.4907C19.7925 14.8073 19.0245 13.3004 17.8213 12.3004H20.5765C22.4642 12.3001 24 10.7641 24 8.87617C24 7.27319 22.9152 5.91757 21.3823 5.55156C21.3934 5.41847 21.3987 5.295 21.3987 5.17384C21.3987 2.32094 19.0777 0 16.2248 0C14.516 0 12.9456 0.828914 11.9759 2.22949C11.5356 2.07631 11.0761 1.99867 10.6061 1.99867C8.53605 1.99867 6.82074 3.47462 6.49074 5.48206C4.40857 5.20416 2.62731 6.84396 2.62731 8.8763C2.62731 10.7641 4.16332 12.3001 6.05108 12.3001H10.869C10.4911 12.6154 10.1514 12.9831 9.86366 13.4006C9.3968 13.2365 8.90923 13.1534 8.41032 13.1534C6.22663 13.1534 4.41816 14.7142 4.0775 16.8346C1.88294 16.5324 0 18.2585 0 20.4007C0 22.3853 1.6147 24 3.59937 24L3.59929 24.0002ZM6.05105 11.7001C4.49415 11.7001 3.22724 10.4333 3.22724 8.8763C3.22745 7.11427 4.84483 5.70722 6.68197 6.12593C6.76651 6.14497 6.85524 6.12677 6.92534 6.07592C6.99545 6.02486 7.04002 5.94596 7.04755 5.85954C7.2068 4.03119 8.76998 2.59879 10.6061 2.59879C11.0803 2.59879 11.5419 2.69087 11.9787 2.87272C12.1145 2.9286 12.2706 2.879 12.3482 2.75491C13.1924 1.40576 14.6416 0.600094 16.2248 0.600094C18.7469 0.600094 20.7987 2.65194 20.7987 5.17399C20.7987 5.34935 20.7857 5.53413 20.7575 5.75513C20.7372 5.91647 20.8487 6.06463 21.0094 6.08933C22.3945 6.3032 23.4001 7.47506 23.4001 8.87628C23.4001 10.4334 22.1332 11.7001 20.5763 11.7001H16.9374C16.166 11.2809 15.2827 11.0426 14.3446 11.0426C13.419 11.0426 12.5328 11.2751 11.7505 11.7001L6.05105 11.7001ZM3.59929 17.4012C3.81735 17.4012 4.04272 17.4274 4.26937 17.4793C4.35349 17.4981 4.44264 17.4803 4.51274 17.4292C4.58285 17.3782 4.62742 17.2993 4.63495 17.2129C4.80382 15.273 6.46223 13.7535 8.4103 13.7535C8.91337 13.7535 9.40325 13.8513 9.86638 14.0442C10.0022 14.1001 10.1585 14.0505 10.2361 13.9262C11.131 12.4963 12.6667 11.6425 14.3448 11.6425C17.0179 11.6425 19.1926 13.8172 19.1926 16.4905C19.1926 16.6776 19.1788 16.8732 19.1489 17.1061C19.1284 17.2675 19.2399 17.4158 19.4008 17.4405C20.8722 17.6676 21.9402 18.9125 21.9402 20.4008C21.94 22.0546 20.5945 23.4002 18.9407 23.4002H3.59936C1.94555 23.4002 0.599989 22.0546 0.599989 20.4008C0.599989 18.747 1.94555 17.4012 3.59936 17.4012L3.59929 17.4012Z" fill="black"/>
</svg>
