<svg width="24" height="24" viewBox="0 0 24 24" fill="none" xmlns="http://www.w3.org/2000/svg">
<path d="M20.5715 4.60242C20.2009 2.47109 18.3167 0.864863 16.1236 0.864863C14.7337 0.864863 13.4364 1.51362 12.5716 2.59453C11.6449 0.988304 9.9152 0 8.06181 0C5.22012 0 2.90352 2.28576 2.84169 5.0964C1.1428 5.62147 0 7.1659 0 8.9574C0 11.1813 1.82233 13.0037 4.04627 13.0037C5.18907 13.0037 6.2702 12.5094 7.0424 11.6756C7.84543 13.8687 9.94592 15.3513 12.3244 15.3513C14.6101 15.3513 16.6178 13.9922 17.5134 11.9228C18.2238 12.4478 19.0578 12.7258 19.9227 12.7258C22.1774 12.7258 24 10.9034 24 8.64846C24 6.61024 22.5483 4.94218 20.5714 4.60242H20.5715ZM19.9227 12.1082C19.0579 12.1082 18.2238 11.7992 17.5753 11.2126C17.5135 11.1507 17.39 11.1199 17.2974 11.1507C17.2047 11.1815 17.1121 11.2434 17.081 11.367C16.4015 13.4057 14.4865 14.7956 12.3244 14.7956C10.0386 14.7956 8.03098 13.2512 7.47489 10.9964C7.44408 10.873 7.35143 10.7801 7.22776 10.7801H7.16592C7.07327 10.7801 6.98062 10.8419 6.91879 10.9036C6.27003 11.861 5.21989 12.448 4.07709 12.448C2.19293 12.448 0.648531 10.9036 0.648531 9.01941C0.648531 7.44417 1.72972 6.05405 3.27412 5.68351C3.4286 5.6527 3.52125 5.52902 3.52125 5.37454V5.28189C3.52125 2.74897 5.59074 0.67953 8.12361 0.67953C9.91511 0.67953 11.5522 1.72967 12.3244 3.36673C12.3862 3.45937 12.4789 3.55202 12.5715 3.55202C12.695 3.55202 12.7878 3.49018 12.8494 3.39754C13.5598 2.22374 14.8263 1.54415 16.1853 1.54415C18.1622 1.54415 19.83 3.02672 20.0772 4.97271C20.108 5.1272 20.2006 5.21984 20.3551 5.25066C22.1158 5.43595 23.4439 6.9185 23.4439 8.71005C23.3823 10.5638 21.8379 12.1082 19.9227 12.1082L19.9227 12.1082Z" fill="black"/>
<path d="M6.57926 14.6101C6.42477 14.5793 6.23948 14.6719 6.20867 14.8264L4.6951 20.4789C4.66429 20.6334 4.75694 20.8187 4.91142 20.8495H5.00407C5.12753 20.8495 5.2512 20.7569 5.31304 20.6332L6.8266 14.9807C6.82639 14.8264 6.73374 14.6409 6.57926 14.6101Z" fill="black"/>
<path d="M4.72596 21.529C4.57148 21.4982 4.38619 21.5909 4.35538 21.7453L4.0156 23.0734C3.98479 23.2279 4.07743 23.4132 4.23192 23.444H4.32457C4.44802 23.444 4.5717 23.3514 4.63353 23.2277L4.97331 21.8996C4.9731 21.7451 4.88045 21.5906 4.72596 21.529Z" fill="black"/>
<path d="M19.4595 20.17C19.305 20.1391 19.1198 20.2318 19.0889 20.3863L18.3786 23.0735C18.3478 23.228 18.4404 23.4133 18.5949 23.4441H18.6875C18.811 23.4441 18.9347 23.3514 18.9965 23.2277L19.7069 20.5405C19.7067 20.3861 19.614 20.2008 19.4595 20.17Z" fill="black"/>
<path d="M7.44412 20.17C7.28964 20.1391 7.10434 20.2318 7.07353 20.3863L6.36316 23.0735C6.33235 23.228 6.425 23.4133 6.57948 23.4441H6.67213C6.79559 23.4441 6.91926 23.3514 6.9811 23.2277L7.69146 20.5405C7.69125 20.3861 7.5986 20.2008 7.44412 20.17Z" fill="black"/>
<path d="M17.4827 19.0271C17.3282 18.9963 17.1429 19.0889 17.1121 19.2434L16.0928 23.0426C16.062 23.1971 16.1546 23.3824 16.3091 23.4132H16.4018C16.5252 23.4132 16.6489 23.3205 16.7107 23.1969L17.6988 19.4285C17.7299 19.2432 17.6372 19.0887 17.4827 19.0271Z" fill="black"/>
<path d="M18.6564 14.6101C18.5019 14.5793 18.3166 14.6719 18.2858 14.8264L17.4207 18.0387C17.3899 18.1932 17.4826 18.3784 17.6371 18.4093H17.7297C17.8532 18.4093 17.9768 18.3166 18.0387 18.1929L18.9035 14.9496C18.9344 14.8264 18.8107 14.6409 18.6564 14.6101Z" fill="black"/>
<path d="M12.9422 17.0811C12.7877 17.0503 12.6024 17.143 12.5716 17.2975L12.2318 18.6255C12.201 18.78 12.2936 18.9653 12.4481 18.9961H12.5408C12.6642 18.9961 12.7879 18.9035 12.8497 18.7798L13.1895 17.4517C13.2201 17.2973 13.1274 17.143 12.9422 17.0811Z" fill="black"/>
<path d="M12.2626 19.614C12.1081 19.5831 11.9228 19.6758 11.892 19.8303L11.0272 23.0736C10.9964 23.2281 11.089 23.4133 11.2435 23.4442H11.3361C11.4596 23.4442 11.5833 23.3515 11.6451 23.2278L12.51 19.9845C12.5406 19.8303 12.4479 19.6758 12.2626 19.614Z" fill="black"/>
<path d="M8.61784 15.7221C8.46336 15.6913 8.27806 15.7839 8.24725 15.9384L7.38239 19.1817C7.35158 19.3362 7.44422 19.5215 7.59871 19.5523H7.69136C7.81481 19.5523 7.93849 19.4596 8.00032 19.336L8.86519 16.0927C8.89578 15.9384 8.80313 15.7529 8.61784 15.7221Z" fill="black"/>
<path d="M20.8804 14.7646C20.7259 14.7337 20.5406 14.8264 20.5098 14.9809L19.3978 19.1816C19.367 19.3361 19.4597 19.5214 19.6142 19.5522H19.7068C19.8303 19.5522 19.9539 19.4596 20.0158 19.3359L21.0967 15.1351C21.1586 14.9807 21.0659 14.8264 20.8804 14.7646Z" fill="black"/>
<path d="M10.6564 16.8649C10.502 16.8341 10.3167 16.9268 10.2859 17.0813L8.67963 23.0735C8.64882 23.228 8.74147 23.4133 8.89595 23.4441H8.9886C9.11206 23.4441 9.23573 23.3515 9.29757 23.2278L10.9038 17.2355C10.9346 17.0813 10.8417 16.9268 10.6564 16.8649Z" fill="black"/>
<path d="M4.07731 14.7646C3.92283 14.7337 3.73753 14.8264 3.70672 14.9809L1.54462 23.0735C1.51381 23.228 1.60646 23.4133 1.76094 23.4441H1.85359C1.97704 23.4441 2.10072 23.3515 2.16256 23.2278L4.32466 15.1351C4.32444 14.9807 4.23158 14.8264 4.07731 14.7646Z" fill="black"/>
<path d="M15.9383 16.0618C15.7838 16.031 15.5985 16.1237 15.5677 16.2782L13.7454 23.0735C13.7146 23.228 13.8072 23.4133 13.9617 23.4441H14.0543C14.1778 23.4441 14.3015 23.3515 14.3633 23.2278L16.1856 16.4324C16.2162 16.278 16.1236 16.1237 15.9383 16.0618Z" fill="black"/>
</svg>
