<svg width="25" height="24" viewBox="0 0 25 24" fill="none" xmlns="http://www.w3.org/2000/svg">
<path d="M16.0254 0C18.1202 0 25 10.9503 25 15.1577C25 20.041 20.982 24 16.0254 24C14.8566 24 13.7177 23.7794 12.6567 23.3557C12.3287 23.2246 12.1705 22.8564 12.3034 22.5331C12.4365 22.2098 12.8101 22.0539 13.1383 22.185C14.047 22.5479 15.0225 22.7367 16.0254 22.7367C20.2737 22.7367 23.7176 19.2926 23.7176 15.1579C23.5753 10.7557 17.2688 1.95287 15.9754 1.27294C14.6452 1.99574 10.5348 8.58976 9.50189 11.0063C9.3596 11.3258 8.98164 11.4711 8.65734 11.3311C8.33326 11.1909 8.1856 10.8185 8.32789 10.499C9.50188 7.56223 14.1987 0.156086 16.0256 0.000178628L16.0254 0ZM12.8204 19.5788C13.1743 19.5788 13.4615 19.8616 13.4615 20.2105C13.4615 20.5342 13.2106 20.8419 12.8204 20.8419C11.835 20.8419 11.0747 22.1052 9.61709 22.1052C8.15937 22.1052 7.41866 20.8419 6.41016 20.8419C5.40166 20.8419 4.68052 22.1052 3.20515 22.1052C2.17989 22.1052 1.1748 21.6099 0.192449 20.6615C-0.0603825 20.4173 -0.0644593 20.0174 0.18322 19.7683C0.431112 19.5192 0.836947 19.5152 1.0898 19.7592C1.85171 20.4951 2.55615 20.8419 3.20515 20.8419C4.10399 20.8419 4.92579 19.5786 6.41016 19.5788C7.89454 19.5791 8.65128 20.8419 9.61369 20.8419C10.5761 20.8419 11.2481 19.5791 12.8204 19.5788ZM1.0898 17.2331C1.85171 17.9688 2.55593 18.3158 3.20515 18.3158C3.55907 18.3158 3.84624 18.5985 3.84624 18.9472C3.84624 19.2961 3.55907 19.5788 3.20515 19.5788C2.17989 19.5788 1.1748 19.0836 0.192449 18.1352C-0.0603825 17.8911 -0.0644593 17.4912 0.18322 17.2422C0.431112 16.9929 0.836945 16.9888 1.0898 17.2331ZM12.8204 17.0525C14.364 17.0525 15.1089 18.3158 16.0316 18.3158C16.6768 18.3219 17.3782 17.9764 18.1388 17.2352C18.3904 16.9899 18.7962 16.992 19.0452 17.2401C19.2942 17.4879 19.292 17.8878 19.0403 18.1331C18.0564 19.0921 17.0498 19.5788 16.0192 19.5788C14.5357 19.5788 13.8369 18.3158 12.8204 18.3158C11.8039 18.3158 11.0858 19.579 9.6171 19.5788C8.14839 19.5786 7.42318 18.3158 6.41017 18.3158C6.05625 18.3158 5.7693 18.0328 5.7693 17.6841C5.7693 17.3354 6.05626 17.0525 6.41017 17.0525C7.94476 17.0527 8.67382 18.3155 9.6137 18.3158C10.5534 18.3158 11.2768 17.0525 12.8204 17.0525ZM6.41005 14.5264C6.76418 14.5264 7.05114 14.8091 7.05114 15.1578C7.05114 15.4817 6.79681 15.7894 6.41005 15.7894C5.39485 15.7894 4.66771 17.0525 3.20504 17.0525C2.17978 17.0525 1.17469 16.5575 0.192339 15.609C-0.0604923 15.3648 -0.0645691 14.965 0.18311 14.7158C0.431002 14.4667 0.836837 14.4627 1.08969 14.7067C1.8516 15.4424 2.55582 15.7894 3.20504 15.7894C4.24855 15.7894 4.80639 14.5264 6.41005 14.5264ZM12.8204 14.5264C14.3065 14.5264 15.0753 15.7852 16.0316 15.7894C16.6768 15.7956 17.3782 15.4502 18.1388 14.7088C18.3904 14.4635 18.7962 14.4657 19.0452 14.7137C19.2942 14.9615 19.292 15.3616 19.0403 15.6069C18.0564 16.5657 17.0492 17.0525 16.0192 17.0525C14.566 17.0525 13.8364 15.7936 12.8204 15.7894C11.8044 15.7852 11.1045 17.0525 9.6171 17.0525C9.26297 17.0535 8.97513 16.7714 8.97431 16.4227C8.97345 16.0738 9.25955 15.7902 9.6137 15.7894C10.5396 15.7852 11.3343 14.5264 12.8204 14.5264ZM12.8204 12C13.1743 12 13.4615 12.2827 13.4615 12.6316C13.4615 12.9554 13.1908 13.2631 12.8204 13.2631C11.7565 13.2631 11.1176 14.5224 9.61709 14.5264C8.11662 14.5302 7.43328 13.2631 6.41016 13.2631C5.38726 13.2631 4.70947 14.5264 3.20515 14.5264C2.17989 14.5264 1.1748 14.0311 0.192449 13.0827C-0.0603825 12.8385 -0.0644593 12.4386 0.18322 12.1895C0.431112 11.9404 0.836947 11.9364 1.0898 12.1804C1.85171 12.9163 2.55615 13.2631 3.20515 13.2631C4.13514 13.2588 4.89705 12 6.41016 12C7.92327 12 8.65711 13.2656 9.61369 13.2631C10.57 13.2607 11.285 12 12.8204 12Z" fill="black"/>
</svg>
