<svg width="24" height="24" viewBox="0 0 24 24" fill="none" xmlns="http://www.w3.org/2000/svg">
<path d="M21.0487 12.0953C21.063 11.9344 21.0697 11.7858 21.0697 11.6404C21.0699 8.44766 18.4721 5.84989 15.2792 5.84989C13.6898 5.84989 12.2089 6.49188 11.1307 7.60788C11.1338 7.54489 11.1393 7.48211 11.1393 7.41871C11.1393 5.36731 9.47044 3.69824 7.41883 3.69824C5.36743 3.69845 3.69858 5.36731 3.69858 7.41871C3.69858 8.52109 4.17988 9.54398 5.01734 10.2534C4.68314 10.7801 4.44772 11.3792 4.34582 12.03C4.16858 12.0045 3.99238 11.9917 3.81911 11.9917C1.71312 11.9917 7.62939e-05 13.7049 7.62939e-05 15.8107C7.62939e-05 17.9166 1.71312 19.6296 3.8189 19.6296H20.1811C22.287 19.6296 24 17.9165 24 15.8107C24 14.0121 22.7752 12.4925 21.0485 12.0951L21.0487 12.0953ZM4.29864 7.41894C4.29864 5.6984 5.6984 4.29864 7.41894 4.29864C9.13949 4.29864 10.5393 5.6984 10.5393 7.41894C10.5393 7.73284 10.4907 8.03983 10.3999 8.33571C9.93239 8.18232 9.4469 8.10133 8.9503 8.10133C7.51014 8.10133 6.22486 8.74167 5.36982 9.76557C4.6893 9.1719 4.29861 8.32794 4.29861 7.41889L4.29864 7.41894ZM20.1814 19.03H3.81918C2.0442 19.03 0.600299 17.5858 0.600299 15.8111C0.600299 14.0361 2.0442 12.592 3.81918 12.592C4.05334 12.592 4.29546 12.62 4.53821 12.6757C4.62317 12.6949 4.71127 12.6767 4.78179 12.6257C4.85189 12.5746 4.89647 12.4957 4.904 12.4093C5.08522 10.3301 6.86267 8.70137 8.9505 8.70137C9.48953 8.70137 10.0148 8.80621 10.511 9.01317C10.6472 9.06926 10.8027 9.01945 10.8807 8.89536C11.8383 7.36419 13.4827 6.4501 15.2794 6.4501C18.1415 6.4501 20.4698 8.77857 20.4698 11.6405C20.4698 11.8403 20.4549 12.0498 20.4231 12.2996C20.4026 12.461 20.5143 12.6094 20.675 12.634C22.2542 12.8778 23.4003 14.214 23.4003 15.8111C23.4003 17.5858 21.9564 19.03 20.1814 19.03Z" fill="black"/>
<path d="M3.13614 21.1821C2.97291 21.1501 2.81617 21.258 2.78541 21.4208L2.36354 23.644C2.33257 23.8069 2.4395 23.9638 2.60231 23.9948C2.62114 23.9983 2.63997 24 2.6586 24C2.79985 24 2.92583 23.8998 2.95303 23.756L3.3749 21.5328C3.40567 21.37 3.29873 21.213 3.13614 21.1821Z" fill="black"/>
<path d="M8.35397 21.1821C8.18991 21.1501 8.03401 21.258 8.00325 21.4208L7.58137 23.644C7.5504 23.8069 7.65734 23.9638 7.82014 23.9948C7.83897 23.9983 7.85781 24 7.87643 24C8.01768 24 8.14366 23.8998 8.17087 23.756L8.59274 21.5328C8.6235 21.37 8.51657 21.213 8.35397 21.1821Z" fill="black"/>
<path d="M13.5713 21.1821C13.4076 21.1501 13.2513 21.258 13.2205 21.4208L12.7987 23.644C12.7677 23.8069 12.8746 23.9638 13.0374 23.9948C13.0563 23.9983 13.0753 24 13.0937 24C13.235 24 13.361 23.8998 13.3882 23.756L13.81 21.5328C13.841 21.37 13.7341 21.213 13.5713 21.1821Z" fill="black"/>
<path d="M18.7891 21.1821C18.6259 21.1501 18.4694 21.258 18.4384 21.4208L18.0165 23.644C17.9855 23.8069 18.0925 23.9638 18.2553 23.9948C18.2743 23.9983 18.2932 24 18.3116 24C18.4528 24 18.5788 23.8998 18.606 23.756L19.0279 21.5328C19.0588 21.37 18.9519 21.213 18.7891 21.1821Z" fill="black"/>
<path d="M5.74505 21.1821C5.58183 21.1501 5.42509 21.258 5.39433 21.4208L4.97246 23.644C4.94149 23.8069 5.04842 23.9638 5.21122 23.9948C5.23006 23.9983 5.24889 24 5.26752 24C5.40877 24 5.53474 23.8998 5.56195 23.756L5.98382 21.5328C6.01458 21.37 5.90765 21.213 5.74505 21.1821Z" fill="black"/>
<path d="M10.9624 21.1821C10.7985 21.1501 10.6424 21.258 10.6116 21.4208L10.1898 23.644C10.1588 23.8069 10.2657 23.9638 10.4285 23.9948C10.4474 23.9983 10.4664 24 10.4848 24C10.6261 24 10.752 23.8998 10.7792 23.756L11.2011 21.5328C11.2321 21.37 11.1252 21.213 10.9624 21.1821Z" fill="black"/>
<path d="M16.1802 21.1821C16.0168 21.1501 15.8604 21.258 15.8295 21.4208L15.4076 23.644C15.3766 23.8069 15.4836 23.9638 15.6464 23.9948C15.6654 23.9983 15.6842 24 15.7027 24C15.8439 24 15.9699 23.8998 15.9971 23.756L16.419 21.5328C16.4499 21.37 16.343 21.213 16.1802 21.1821Z" fill="black"/>
<path d="M21.398 21.1821C21.235 21.1501 21.0781 21.258 21.0473 21.4208L20.6254 23.644C20.5945 23.8069 20.7014 23.9638 20.8642 23.9948C20.8832 23.9983 20.9021 24 20.9205 24C21.0617 24 21.1877 23.8998 21.2149 23.756L21.6368 21.5328C21.6678 21.37 21.5608 21.213 21.398 21.1821Z" fill="black"/>
<path d="M7.71916 2.33873V0.300084C7.71916 0.134346 7.58481 0 7.41907 0C7.25333 0 7.11899 0.134346 7.11899 0.300084V2.33873C7.11899 2.50447 7.25333 2.63882 7.41907 2.63882C7.58481 2.63861 7.71916 2.50426 7.71916 2.33873Z" fill="black"/>
<path d="M3.59953 1.40375L4.61883 3.16908C4.6745 3.26534 4.77536 3.31912 4.87895 3.31912C4.9298 3.31912 4.98128 3.30615 5.02857 3.27895C5.17213 3.19608 5.2211 3.01255 5.13844 2.869L4.11914 1.10367C4.03585 0.95991 3.85295 0.910522 3.70919 0.993809C3.56585 1.07689 3.51688 1.2602 3.59953 1.40375Z" fill="black"/>
<path d="M3.16935 4.61894L1.40402 3.59964C1.26005 3.51657 1.07694 3.56595 0.99408 3.70951C0.91142 3.85306 0.960389 4.03638 1.10394 4.11945L2.86927 5.13875C2.91657 5.16595 2.96805 5.17893 3.0189 5.17893C3.12269 5.17893 3.22335 5.12515 3.27901 5.02888C3.36209 4.88512 3.31312 4.70181 3.16935 4.61894Z" fill="black"/>
<path d="M0.300085 7.7191H2.33873C2.50447 7.7191 2.63882 7.58475 2.63882 7.41901C2.63882 7.25327 2.50447 7.11893 2.33873 7.11893L0.300085 7.11914C0.134346 7.11914 0 7.25348 0 7.41922C0 7.58475 0.134346 7.7191 0.300085 7.7191Z" fill="black"/>
<path d="M2.86935 9.6991L1.10402 10.7184C0.960465 10.8013 0.911496 10.9848 0.994157 11.1283C1.04982 11.2246 1.15069 11.2784 1.25427 11.2784C1.30512 11.2784 1.3566 11.2654 1.4039 11.2382L3.16923 10.2189C3.31278 10.136 3.36175 9.95251 3.27909 9.80896C3.19622 9.66541 3.0129 9.61623 2.86935 9.6991Z" fill="black"/>
<path d="M11.819 5.17876C11.8698 5.17876 11.9213 5.16578 11.9686 5.13858L13.7341 4.11928C13.8775 4.03641 13.9267 3.85289 13.844 3.70934C13.7609 3.56578 13.5776 3.5164 13.434 3.59948L11.6685 4.61877C11.5252 4.70164 11.476 4.88517 11.5586 5.02872C11.6145 5.12498 11.7154 5.17876 11.819 5.17876Z" fill="black"/>
<path d="M9.95897 3.31931C10.0628 3.31931 10.1634 3.26553 10.2191 3.16927L11.2384 1.40394C11.321 1.26038 11.2721 1.07707 11.1285 0.993993C10.9845 0.910705 10.8014 0.960092 10.7186 1.10386L9.69928 2.86919C9.61662 3.01274 9.66559 3.19606 9.80914 3.27913C9.85644 3.30654 9.90812 3.31931 9.95897 3.31931Z" fill="black"/>
</svg>
