<svg width="28" height="24" viewBox="0 0 28 24" fill="none" xmlns="http://www.w3.org/2000/svg">
<path d="M24.4765 6.01098H24.262C23.4278 4.63883 21.9322 3.77949 20.3073 3.77949C20.0493 3.77949 19.7938 3.80068 19.5421 3.84284C19.0918 2.85053 18.3932 1.9707 17.5227 1.31219C16.388 0.453765 15.0358 0 13.6126 0C12.1894 0 10.8372 0.453783 9.70248 1.31219C8.83173 1.97064 8.13334 2.85048 7.6831 3.84284C7.43163 3.80068 7.1759 3.77949 6.91792 3.77949C5.27327 3.77949 3.76088 4.66024 2.93293 6.06148C1.27302 6.34664 0 7.81213 0 9.55466C0 11.5084 1.58056 13.0983 3.52328 13.0983H24.4767C26.4192 13.0983 28 11.5086 28 9.55466C28 7.60046 26.4194 6.01098 24.4767 6.01098H24.4765ZM24.4765 11.338H3.52307C2.54542 11.338 1.74955 10.538 1.74955 9.55471C1.74955 8.58428 2.53447 7.7842 3.49977 7.77162C3.84 7.76711 4.14704 7.56446 4.2867 7.25224C4.75154 6.21192 5.78435 5.53944 6.91771 5.53944C7.26175 5.53944 7.59791 5.59986 7.91733 5.71843C8.14325 5.80251 8.39383 5.78899 8.60941 5.68146C8.82524 5.57393 8.98751 5.38142 9.05766 5.14991C9.67246 3.12242 11.5029 1.7602 13.6124 1.7602C15.7219 1.7602 17.5524 3.12242 18.1672 5.14991C18.2373 5.38165 18.3996 5.57394 18.6154 5.68146C18.8312 5.78922 19.0816 5.80252 19.3075 5.71843C19.6269 5.59963 19.9633 5.53944 20.3071 5.53944C21.4405 5.53944 22.4733 6.21146 22.9379 7.25201C23.0791 7.56783 23.3918 7.77139 23.7361 7.77139H24.4763C25.454 7.77139 26.2494 8.57141 26.2494 9.55471C26.2494 10.538 25.454 11.338 24.4763 11.338H24.4765ZM26.3002 15.9099L25.4537 17.4502C25.2941 17.7408 24.9953 17.9047 24.6872 17.9047C24.544 17.9047 24.399 17.8693 24.2645 17.7944C23.8416 17.5593 23.6885 17.0237 23.9222 16.5983L24.7688 15.058C25.0026 14.6326 25.5347 14.4782 25.958 14.7138C26.3807 14.9489 26.534 15.4845 26.3002 15.9099ZM22.9132 22.0715L22.5811 22.6752C22.4215 22.9658 22.1227 23.1296 21.8146 23.1296C21.6713 23.1296 21.5261 23.0943 21.3919 23.0194C20.9689 22.7843 20.8158 22.2487 21.0496 21.8233L21.3818 21.2196C21.6155 20.7942 22.148 20.6398 22.571 20.8754C22.994 21.1109 23.147 21.6463 22.9132 22.0715ZM18.0788 22.0357L17.2038 23.5597C17.0417 23.842 16.7477 24 16.4451 24C16.2965 24 16.1461 23.9621 16.0082 23.8819C15.5898 23.6389 15.4464 23.1006 15.688 22.6795L16.563 21.1554C16.8046 20.7343 17.3398 20.5902 17.7585 20.8332C18.1771 21.0767 18.3206 21.6148 18.0788 22.0357ZM21.5787 15.9387L20.7038 17.4628C20.5417 17.745 20.2477 17.903 19.9451 17.903C19.7965 17.903 19.6461 17.8652 19.5082 17.7849C19.0898 17.5419 18.9463 17.0036 19.188 16.5825L20.063 15.0584C20.3046 14.6373 20.8398 14.4933 21.2585 14.7363C21.6771 14.9793 21.8206 15.5176 21.5787 15.9387ZM13.8816 21.4896L13.4341 22.2975C13.274 22.5863 12.9759 22.7497 12.6689 22.7497C12.525 22.7497 12.3786 22.7139 12.2439 22.6384C11.8217 22.4019 11.6702 21.8661 11.9053 21.4414L12.3529 20.6335C12.588 20.209 13.1207 20.0564 13.543 20.2928C13.9648 20.5291 14.1168 21.0649 13.8816 21.4896ZM15.6711 17.3287C15.5272 17.3287 15.3809 17.2928 15.2462 17.2173C14.8239 16.9808 14.6724 16.445 14.9075 16.0203L15.759 14.4827C15.9941 14.0582 16.5269 13.9056 16.9491 14.142C17.3714 14.3785 17.5229 14.9144 17.2878 15.339L16.4363 16.8767C16.2765 17.1657 15.9784 17.3287 15.6711 17.3287ZM8.65278 22.064L8.04878 23.116C7.88674 23.3983 7.59268 23.5563 7.29009 23.5563C7.14149 23.5563 6.9911 23.5184 6.85326 23.4382C6.43481 23.1951 6.29137 22.6568 6.53298 22.2357L7.13699 21.1837C7.3786 20.7626 7.91381 20.6185 8.33249 20.8616C8.75072 21.1048 8.8944 21.6429 8.65278 22.064ZM12.1528 15.967L11.2778 17.4911C11.1157 17.7734 10.8217 17.9314 10.5191 17.9314C10.3705 17.9314 10.2201 17.8935 10.0823 17.8133C9.66381 17.5703 9.52036 17.0319 9.76198 16.6108L10.637 15.0867C10.8786 14.6656 11.4138 14.5216 11.8325 14.7646C12.2507 15.0076 12.3944 15.5459 12.1528 15.967ZM6.26361 17.217C6.11569 17.217 5.9662 17.1794 5.82881 17.1002C5.40969 16.8586 5.2649 16.3207 5.50517 15.899L6.37592 14.3722C6.61663 13.9506 7.15142 13.805 7.57027 14.0467C7.9894 14.2883 8.13418 14.8262 7.89391 15.2479L7.02316 16.7747C6.86179 17.0585 6.56707 17.217 6.26361 17.217ZM4.41052 21.3549L3.98198 22.1058C3.82038 22.3894 3.52521 22.5481 3.22243 22.5481C3.0745 22.5481 2.92501 22.5105 2.78762 22.4313C2.3685 22.1892 2.22371 21.6514 2.46398 21.2301L2.89251 20.4792C3.13323 20.0574 3.66802 19.912 4.08687 20.1537C4.50644 20.3953 4.65123 20.9332 4.41052 21.3549ZM2.72576 15.995L1.85076 17.5191C1.68872 17.8013 1.39466 17.9593 1.09207 17.9593C0.943475 17.9593 0.793085 17.9214 0.655243 17.8412C0.236794 17.5982 0.0933519 17.0599 0.334966 16.6388L1.20996 15.1147C1.45157 14.6936 1.98679 14.5495 2.40547 14.7925C2.82414 15.036 2.96737 15.5741 2.72576 15.995Z" fill="black"/>
</svg>
