<svg width="20" height="20" viewBox="0 0 20 20" fill="none" xmlns="http://www.w3.org/2000/svg">
<path d="M19.2963 18.1684L14.1763 13.0484C15.4693 11.4589 16.103 9.43391 15.9471 7.39076C15.7911 5.34774 14.8571 3.44255 13.3377 2.06779C11.8184 0.693158 9.82948 -0.0461339 7.78111 0.00223183C5.7327 0.0508033 3.78093 0.883283 2.32831 2.32831C0.883331 3.78097 0.0508286 5.73279 0.00223434 7.78111C-0.0461588 9.82952 0.693114 11.8184 2.06779 13.3377C3.4426 14.8571 5.34779 15.7911 7.39076 15.9471C9.43378 16.103 11.4588 15.4693 13.0484 14.1763L18.1684 19.2963C18.3744 19.4727 18.6557 19.5327 18.9157 19.4559C19.1757 19.3789 19.3791 19.1756 19.456 18.9156C19.5328 18.6556 19.4727 18.3744 19.2963 18.1684ZM3.45627 12.5126C2.25554 11.3126 1.58075 9.68456 1.58038 7.98706C1.58003 6.28936 2.25412 4.66116 3.4543 3.46061C4.65467 2.26006 6.28269 1.58559 7.98038 1.58559C9.67789 1.58559 11.3061 2.26006 12.5063 3.46061C13.7066 4.66116 14.3807 6.28936 14.3804 7.98706C14.38 9.68456 13.705 11.3126 12.5043 12.5126C11.3095 13.7217 9.68022 14.4022 7.98038 14.4022C6.28036 14.4022 4.6511 13.7217 3.45627 12.5126Z" fill="black"/>
</svg>
