<svg width="24" height="24" viewBox="0 0 24 24" fill="none" xmlns="http://www.w3.org/2000/svg">
<path d="M20.9145 9.24531C21.0328 9.24531 21.151 9.22705 21.2604 9.17264L23.4174 8.28174C23.8907 8.08179 24.1183 7.53616 23.9271 7.06361C23.7358 6.58173 23.1898 6.35456 22.7165 6.55453L20.5594 7.44543C20.0861 7.64538 19.8585 8.19101 20.0498 8.66356C20.2046 9.02711 20.5505 9.24531 20.9145 9.24531Z" fill="#FFC700"/>
<path d="M16.5456 20.5452C16.3454 20.0724 15.8083 19.8451 15.335 20.0452C14.8617 20.2452 14.6432 20.7908 14.8436 21.2724L15.7356 23.4269C15.8813 23.7815 16.227 23.9997 16.5912 23.9997C16.7094 23.9997 16.8277 23.9725 16.9462 23.9271C17.4195 23.7271 17.638 23.1815 17.4376 22.6998L16.5456 20.5452Z" fill="#FFC700"/>
<path d="M12.013 5.00903C8.14477 5.00903 5.00476 8.14533 5.00476 12.0002C5.00476 15.855 8.15394 18.9913 12.013 18.9913C15.8812 18.9913 19.0212 15.855 19.0212 12.0002C19.0301 8.14553 15.881 5.00903 12.013 5.00903Z" fill="#FFC700"/>
<path d="M8.67246 20.0459C8.19915 19.8459 7.66221 20.0731 7.46185 20.5458L6.5699 22.7003C6.36972 23.1731 6.59713 23.7276 7.0613 23.9275C7.17958 23.973 7.29786 24.0002 7.41632 24.0002C7.7803 24.0002 8.11724 23.782 8.27191 23.4274L9.16386 21.2729C9.36424 20.7914 9.14576 20.246 8.67246 20.0459Z" fill="#FFC700"/>
<path d="M23.4265 15.7184L21.2695 14.8275C20.7962 14.6275 20.2593 14.8638 20.0589 15.3365C19.8677 15.8184 20.0953 16.3638 20.5686 16.5547L22.7256 17.4456C22.8439 17.491 22.9622 17.5182 23.0715 17.5182C23.4355 17.5182 23.7814 17.3 23.9271 16.9365C24.1275 16.4546 23.8999 15.9092 23.4265 15.7184Z" fill="#FFC700"/>
<path d="M15.3349 3.95459C15.4532 4.00005 15.5715 4.02726 15.69 4.02726C16.0539 4.02726 16.3909 3.80905 16.5455 3.45443L17.4375 1.29996C17.6377 0.827212 17.4103 0.272645 16.9461 0.0727242C16.4728 -0.127221 15.9358 0.0999285 15.7355 0.572697L14.8435 2.72717C14.6432 3.20905 14.8616 3.75447 15.3349 3.95459Z" fill="#FFC700"/>
<path d="M3.43906 7.44565L1.28204 6.55475C0.808727 6.3548 0.271788 6.59108 0.0714349 7.06383C-0.128747 7.53658 0.107814 8.09114 0.581118 8.28196L2.73814 9.17286C2.85642 9.21833 2.9747 9.24553 3.08403 9.24553C3.44801 9.24553 3.79392 9.02732 3.93961 8.66379C4.1398 8.19104 3.91239 7.64562 3.43906 7.44565Z" fill="#FFC700"/>
<path d="M7.46176 3.4547C7.60746 3.80931 7.95315 4.02753 8.31734 4.02753C8.43562 4.02753 8.5539 4.00033 8.67237 3.95486C9.14567 3.75492 9.36417 3.20929 9.16376 2.72762L8.27181 0.572766C8.07163 0.100017 7.53451 -0.127323 7.06121 0.0727931C6.5879 0.272738 6.36941 0.818369 6.56981 1.30003L7.46176 3.4547Z" fill="#FFC700"/>
<path d="M2.73789 14.8186L0.580869 15.7095C0.10756 15.9095 -0.120049 16.4551 0.0711854 16.9276C0.216893 17.2912 0.562583 17.5094 0.926768 17.5094C1.04505 17.5094 1.16333 17.4911 1.27266 17.4367L3.42968 16.5458C3.90299 16.3459 4.1306 15.8002 3.93936 15.3277C3.75728 14.8549 3.2112 14.6276 2.73789 14.8186Z" fill="#FFC700"/>
</svg>
