<svg width="24" height="24" viewBox="0 0 24 24" fill="none" xmlns="http://www.w3.org/2000/svg">
<path d="M11.9725 5.17525C8.18816 5.17525 5.1154 8.24795 5.1154 12.0323C5.1154 15.8168 8.1881 18.8895 11.9725 18.8895C15.7568 18.8572 18.8296 15.7845 18.8296 12.0323C18.8296 8.24801 15.7567 5.17525 11.9725 5.17525ZM11.9725 18.2102C8.54401 18.2102 5.7623 15.4286 5.7623 12C5.7623 8.57145 8.54395 5.7898 11.9725 5.7898C15.4011 5.7898 18.1827 8.60374 18.1827 12.0323C18.1827 15.461 15.4011 18.2102 11.9725 18.2102Z" fill="black"/>
<path d="M11.9725 3.65503C12.1665 3.65503 12.296 3.52575 12.296 3.33149V0.323541C12.296 0.129506 12.1668 0 11.9725 0C11.7785 0 11.649 0.129281 11.649 0.323541V3.33149C11.6492 3.52553 11.8107 3.65503 11.9725 3.65503Z" fill="black"/>
<path d="M16.1126 4.75475C16.1774 4.78702 16.2097 4.78702 16.2744 4.78702C16.3714 4.78702 16.5009 4.72227 16.5655 4.62525L18.0534 2.00537C18.1505 1.8436 18.0857 1.64957 17.9242 1.55256C17.7624 1.45554 17.5683 1.52029 17.4713 1.68184L15.9834 4.30171C15.8863 4.49597 15.9511 4.69 16.1126 4.75475Z" fill="black"/>
<path d="M19.6059 7.89221L22.1935 6.372C22.3553 6.27498 22.3876 6.08095 22.3228 5.91918C22.2258 5.75741 22.0318 5.72515 21.87 5.7899L19.2823 7.31011C19.1206 7.40713 19.0883 7.60116 19.1531 7.76293C19.2178 7.85994 19.3148 7.9247 19.4441 7.9247C19.5089 7.92447 19.5414 7.89221 19.6059 7.89221Z" fill="black"/>
<path d="M23.649 11.4825L20.641 11.5472C20.447 11.5472 20.3175 11.709 20.3175 11.8708C20.3175 12.0325 20.4793 12.1943 20.641 12.1943L23.649 12.1296C23.843 12.1296 23.9725 11.9678 23.9725 11.806C23.9725 11.6443 23.843 11.4825 23.649 11.4825Z" fill="black"/>
<path d="M22.3875 17.3369L19.7354 15.9137C19.5736 15.8167 19.3796 15.8814 19.2826 16.043C19.1855 16.2047 19.2503 16.3988 19.4118 16.4958L22.0642 17.9512C22.129 17.9835 22.1612 17.9835 22.226 17.9835C22.3553 17.9835 22.4525 17.9187 22.517 17.8217C22.5816 17.6279 22.5493 17.4339 22.3875 17.3369Z" fill="black"/>
<path d="M16.7919 19.2452C16.6949 19.0835 16.5008 19.0512 16.3391 19.1482C16.1773 19.2452 16.145 19.4393 16.242 19.601L17.827 22.1562C17.8918 22.2532 17.9888 22.3179 18.1181 22.3179C18.1828 22.3179 18.2473 22.3179 18.2798 22.2857C18.4416 22.1887 18.4739 21.9946 18.3768 21.8329L16.7919 19.2452Z" fill="black"/>
<path d="M12.2636 20.345C12.0696 20.345 11.9401 20.5067 11.9401 20.6685L12.0371 23.6765C12.0371 23.8382 12.1989 24 12.3606 24C12.5547 24 12.6842 23.8382 12.6842 23.6765L12.5871 20.6685C12.5869 20.5065 12.4252 20.345 12.2636 20.345Z" fill="black"/>
<path d="M8.09112 19.407C7.92935 19.3099 7.73532 19.3747 7.63831 19.5362L6.2476 22.1886C6.15058 22.3504 6.21533 22.5444 6.37688 22.6414C6.40914 22.6737 6.47389 22.6737 6.53865 22.6737C6.66793 22.6737 6.76517 22.609 6.8297 22.5119L8.22041 19.8595C8.31765 19.6657 8.25289 19.4717 8.09112 19.407Z" fill="black"/>
<path d="M4.50085 16.3989L1.97795 18.0161C1.81618 18.1131 1.78391 18.3072 1.88093 18.4689C1.94568 18.566 2.0427 18.6307 2.13972 18.6307C2.20447 18.6307 2.269 18.5985 2.30149 18.566L4.82439 16.9487C4.98616 16.8517 5.01842 16.6577 4.9214 16.4959C4.85665 16.3664 4.66261 16.3019 4.50085 16.3989Z" fill="black"/>
<path d="M3.62753 12.4205C3.62753 12.2264 3.46576 12.0969 3.30399 12.1294L0.296041 12.2912C0.102007 12.2912 -0.0274993 12.453 0.00498997 12.6147C0.00498997 12.7765 0.16676 12.9383 0.32853 12.9383H0.360794L3.36875 12.7765C3.49825 12.7763 3.66002 12.6145 3.62753 12.4205Z" fill="black"/>
<path d="M1.39575 7.0189L4.08037 8.37738C4.11263 8.40965 4.17739 8.40965 4.24214 8.40965C4.37142 8.40965 4.46866 8.34489 4.53319 8.24788C4.59794 8.0861 4.56546 7.89207 4.40391 7.82732L1.68677 6.46907C1.525 6.40432 1.33097 6.43681 1.26622 6.59835C1.1692 6.76012 1.23398 6.95415 1.39575 7.0189Z" fill="black"/>
<path d="M6.92671 4.98117C6.99146 5.07819 7.08848 5.11046 7.1855 5.11046C7.25025 5.11046 7.31478 5.07819 7.37953 5.0457C7.5413 4.94869 7.57357 4.75465 7.47655 4.59289L5.82702 2.06999C5.73 1.90822 5.53597 1.87596 5.3742 1.97297C5.21243 2.06999 5.18017 2.26402 5.27719 2.42579L6.92671 4.98117Z" fill="black"/>
</svg>
