<svg width="28" height="28" viewBox="0 0 28 28" fill="none" xmlns="http://www.w3.org/2000/svg">
<path fill-rule="evenodd" clip-rule="evenodd" d="M14.6155 3.78291V0.631596C14.6155 0.283055 14.3395 0 13.9997 0C13.6596 0 13.3834 0.282839 13.3834 0.631596V3.78291C13.3834 4.13123 13.6593 4.41405 13.9997 4.41405C14.3395 4.41405 14.6155 4.13121 14.6155 3.78291Z" fill="black"/>
<path fill-rule="evenodd" clip-rule="evenodd" d="M5.04447 9.99228L2.12009 9.0186C1.79673 8.91059 1.44905 9.09232 1.34363 9.42371C1.23866 9.7551 1.41599 10.1116 1.73936 10.2194L4.66374 11.1931C4.9871 11.3007 5.335 11.119 5.4402 10.7876C5.54516 10.4562 5.36784 10.0999 5.04447 9.99228Z" fill="black"/>
<path fill-rule="evenodd" clip-rule="evenodd" d="M23.337 11.1935L26.2614 10.2198C26.5847 10.1122 26.762 9.75569 26.6566 9.42408C26.5517 9.09269 26.204 8.91095 25.8806 9.01897L22.9558 9.99264C22.6327 10.1002 22.4555 10.4565 22.5605 10.7879C22.6655 11.1193 23.0134 11.3011 23.337 11.1935Z" fill="black"/>
<path fill-rule="evenodd" clip-rule="evenodd" d="M8.84754 5.29438L7.04037 2.74502C6.84044 2.46307 6.45495 2.40049 6.17979 2.60561C5.90467 2.81027 5.84361 3.20556 6.04332 3.48755L7.85094 6.03691C8.05065 6.31886 8.43636 6.38144 8.71152 6.17633C8.98664 5.97166 9.04769 5.57637 8.84754 5.29438Z" fill="black"/>
<path fill-rule="evenodd" clip-rule="evenodd" d="M20.1498 6.03663L21.9574 3.48727C22.1571 3.20532 22.0961 2.81 21.821 2.60532C21.5458 2.40043 21.1606 2.46301 20.9604 2.74474L19.1532 5.2941C18.9533 5.57605 19.0144 5.97137 19.2893 6.17605C19.5644 6.38094 19.9501 6.31836 20.1498 6.03663Z" fill="black"/>
<path fill-rule="evenodd" clip-rule="evenodd" d="M6.05251 13.6348C6.05317 9.1401 9.61367 5.49158 13.9996 5.49158C18.3859 5.49158 21.9467 9.14113 21.9467 13.6354H22.0554H25.208C25.6096 13.6354 26.0112 13.6356 26.4128 13.6356H27.3109C27.4711 13.6356 27.6287 13.694 27.7519 13.7991C27.8934 13.9198 27.9831 14.0973 27.9981 14.2853C28.0022 14.3376 27.9988 14.3893 27.9959 14.4416C27.9918 14.5158 27.9875 14.5895 27.9825 14.6632C27.9657 14.9055 27.9429 15.1471 27.9142 15.3879C27.8282 16.1131 27.688 16.831 27.4952 17.5342C27.2947 18.2651 27.0367 18.9789 26.7255 19.6675C26.2205 20.7844 25.5744 21.8336 24.8088 22.7821C24.1599 23.5867 23.4256 24.3188 22.623 24.9611C21.9353 25.5119 21.1975 25.9969 20.4217 26.4074C19.6673 26.8065 18.8774 27.1347 18.0649 27.3866C17.3916 27.5955 16.7028 27.7516 16.0065 27.8537C15.3424 27.9514 14.6713 28 14.0004 28C13.3294 28 12.6585 27.9514 11.9944 27.8537C11.2981 27.7514 10.6092 27.5953 9.93598 27.3866C9.12325 27.1347 8.33349 26.8065 7.57922 26.4074C6.80342 25.9967 6.0654 25.5119 5.37762 24.9611C4.57506 24.3188 3.84077 23.5866 3.19187 22.7821C2.42648 21.8336 1.78019 20.7844 1.27494 19.6675C0.96374 18.9789 0.705983 18.2649 0.505205 17.5344C0.312449 16.8313 0.17206 16.1131 0.0857852 15.388C0.0570993 15.1472 0.0342816 14.9056 0.0175462 14.6635C0.012548 14.5893 0.00798422 14.5156 0.00407269 14.4417C0.00124756 14.3893 -0.00222934 14.3377 0.00189955 14.2853C0.0168942 14.0969 0.106645 13.9194 0.248335 13.7985C0.371333 13.6934 0.529324 13.6348 0.689702 13.6348H5.94503H6.0526L6.05251 13.6348ZM13.3832 14.8982L1.27256 14.8976C1.89259 21.5419 7.35432 26.7376 14.0002 26.7376C20.6472 26.7376 26.1097 21.5395 26.7267 14.8987L14.6155 14.8985V10.5414L14.8913 10.824C15.1318 11.0701 15.5221 11.0701 15.7622 10.824C16.0028 10.5775 16.0028 10.1775 15.7622 9.93096L14.4351 8.5709C14.4336 8.56934 14.4321 8.56778 14.4303 8.566C14.3191 8.45465 14.1672 8.38583 13.9994 8.38583C13.8319 8.38583 13.6795 8.45442 13.5685 8.566C13.5669 8.56756 13.5654 8.56912 13.5637 8.5709L12.2361 9.93096C11.996 10.1775 11.996 10.5775 12.2361 10.824C12.4767 11.0701 12.867 11.0701 13.1076 10.824L13.3829 10.5414V14.8985L13.3832 14.8982Z" fill="black"/>
</svg>
