<svg width="28" height="28" viewBox="0 0 28 28" fill="none" xmlns="http://www.w3.org/2000/svg">
<path fill-rule="evenodd" clip-rule="evenodd" d="M14.6158 3.7829V0.631595C14.6158 0.283055 14.3398 0 13.9995 0C13.6596 0 13.3837 0.282838 13.3837 0.631595V3.7829C13.3837 4.13122 13.6597 4.41404 13.9995 4.41404C14.3396 4.41404 14.6158 4.1312 14.6158 3.7829Z" fill="black"/>
<path fill-rule="evenodd" clip-rule="evenodd" d="M5.04487 9.99228L2.12051 9.0186C1.79715 8.91059 1.44925 9.09232 1.34405 9.42371C1.23909 9.7551 1.41642 10.1116 1.73978 10.2194L4.66414 11.1931C4.9875 11.3007 5.33517 11.119 5.44015 10.7876C5.54554 10.4562 5.36823 10.0999 5.04487 9.99228Z" fill="black"/>
<path fill-rule="evenodd" clip-rule="evenodd" d="M23.3366 11.1935L26.261 10.2198C26.5844 10.1122 26.7617 9.75569 26.6567 9.42408C26.5518 9.09269 26.2038 8.91095 25.8803 9.01897L22.9559 9.99264C22.6325 10.1002 22.4552 10.4565 22.5602 10.7879C22.6656 11.1193 23.0131 11.3011 23.3366 11.1935Z" fill="black"/>
<path fill-rule="evenodd" clip-rule="evenodd" d="M8.84787 5.29438L7.04027 2.74502C6.84056 2.46307 6.45485 2.40049 6.1797 2.60561C5.90458 2.81027 5.84351 3.20556 6.04366 3.48755L7.85081 6.03691C8.05074 6.31886 8.43623 6.38144 8.71139 6.17632C8.9865 5.97165 9.04758 5.57637 8.84787 5.29438Z" fill="black"/>
<path fill-rule="evenodd" clip-rule="evenodd" d="M20.1501 6.03662L21.9573 3.48727C22.1572 3.20532 22.0961 2.81 21.8212 2.60532C21.5461 2.40043 21.1604 2.46301 20.9607 2.74474L19.1531 5.2941C18.9534 5.57605 19.0144 5.97136 19.2895 6.17604C19.5642 6.38093 19.95 6.31835 20.1501 6.03662Z" fill="black"/>
<path fill-rule="evenodd" clip-rule="evenodd" d="M6.05236 13.6348H0.689536C0.529377 13.6348 0.371387 13.6936 0.248173 13.7985C0.106701 13.9194 0.0167325 14.0969 0.00195665 14.2853C-0.00217231 14.3376 0.00108741 14.3893 0.00391246 14.4417C0.00804142 14.5158 0.0126052 14.5895 0.0176032 14.6635C0.0343362 14.9056 0.0571539 15.1472 0.0856242 15.3879C0.171898 16.1131 0.312063 16.8313 0.505257 17.5344C0.705839 18.2648 0.963571 18.9789 1.27498 19.6675C1.78002 20.7844 2.42651 21.8335 3.19168 22.7821C3.84101 23.5867 4.5753 24.3188 5.37785 24.9611C6.06563 25.5118 6.80387 25.9969 7.57921 26.4073C8.33369 26.8064 9.12345 27.1347 9.93595 27.3866C10.6094 27.5955 11.298 27.7516 11.9946 27.8536C12.6585 27.9514 13.3295 27.9999 14.0004 27.9999C14.6714 27.9999 15.3423 27.9514 16.0064 27.8536C16.7027 27.7514 17.3915 27.5953 18.065 27.3866C18.8775 27.1347 19.6673 26.8064 20.4215 26.4073C21.1973 25.9967 21.9354 25.5118 22.6231 24.9611C23.4257 24.3188 24.16 23.5865 24.8089 22.7821C25.574 21.8335 26.2205 20.7844 26.7256 19.6675C27.0367 18.9789 27.2945 18.2648 27.4951 17.5342C27.6882 16.8311 27.8284 16.113 27.9145 15.3879C27.9432 15.1471 27.9655 14.9055 27.9825 14.6632C27.9875 14.5895 27.9921 14.5158 27.9962 14.4416C27.999 14.3893 28.0021 14.3376 27.9981 14.2852C27.9836 14.0973 27.8938 13.9198 27.7524 13.7991C27.6294 13.694 27.4716 13.6356 27.3114 13.6356H26.4129C26.0113 13.6356 25.6101 13.6354 25.2085 13.6354H21.9473C21.9473 9.1409 18.3862 5.49158 13.9997 5.49158C9.61414 5.49158 6.05324 9.14021 6.05268 13.6348L6.05236 13.6348ZM14.6158 13.635H20.7148C20.7141 9.83693 17.7052 6.75404 13.9994 6.75404C10.2936 6.75404 7.28517 9.83699 7.28461 13.635H13.3836V19.2931L13.1078 19.011C12.8677 18.7644 12.4771 18.7644 12.2368 19.011C11.9962 19.2571 11.9962 19.6573 12.2368 19.9036L13.5639 21.2636C13.5654 21.2652 13.567 21.2667 13.5687 21.2685C13.68 21.3799 13.8319 21.4487 13.9996 21.4487C14.1676 21.4487 14.3195 21.3801 14.4306 21.2685C14.4325 21.267 14.434 21.2654 14.4356 21.2636L15.7627 19.9036C16.0032 19.657 16.0032 19.257 15.7627 19.011C15.5221 18.7644 15.1318 18.7644 14.8912 19.011L14.6159 19.2931V13.635H14.6158Z" fill="black"/>
</svg>
