<svg width="24" height="24" viewBox="0 0 24 24" fill="none" xmlns="http://www.w3.org/2000/svg">
<path fill-rule="evenodd" clip-rule="evenodd" d="M11.9997 0C12.4138 0 12.7497 0.335866 12.7497 0.749999V1.875C12.7497 2.28913 12.4138 2.625 11.9997 2.625C11.5855 2.625 11.2497 2.28913 11.2497 1.875V0.749999C11.2497 0.335866 11.5855 0 11.9997 0ZM5.62468 0.850446C5.98336 0.643274 6.44207 0.766322 6.64923 1.125L7.21173 2.09935C7.4189 2.45803 7.29586 2.91675 6.93718 3.12391C6.5785 3.33087 6.11979 3.20803 5.91262 2.84935L5.35012 1.875C5.14295 1.51632 5.266 1.05761 5.62468 0.850446ZM18.3747 0.850446C18.7334 1.05762 18.8564 1.51634 18.6492 1.875L18.0867 2.84935C17.8796 3.20803 17.4208 3.33087 17.0622 3.12391C16.7035 2.91674 16.5805 2.45802 16.7876 2.09935L17.3501 1.125C17.5573 0.766322 18.016 0.643274 18.3747 0.850446ZM11.9997 5.24999C11.1132 5.24999 10.2356 5.42452 9.41652 5.76373C8.59768 6.10295 7.85352 6.60014 7.22657 7.22687C6.59984 7.85382 6.10264 8.59798 5.76343 9.41682C5.42421 10.2359 5.24969 11.1135 5.24969 12C5.24969 12.8864 5.42421 13.7641 5.76343 14.5831C6.10264 15.402 6.59984 16.1461 7.22657 16.7731C7.85352 17.3998 8.59768 17.897 9.41652 18.2362C10.2356 18.5754 11.1132 18.75 11.9997 18.75C12.8861 18.75 13.7638 18.5754 14.5828 18.2362C15.4017 17.897 16.1458 17.3998 16.7728 16.7731C17.3995 16.1461 17.8967 15.402 18.2359 14.5831C18.5751 13.7641 18.7497 12.8864 18.7497 12C18.7497 11.1135 18.5751 10.2359 18.2359 9.41682C17.8967 8.59798 17.3995 7.85382 16.7728 7.22687C16.1458 6.60014 15.4017 6.10295 14.5828 5.76373C13.7638 5.42452 12.8861 5.24999 11.9997 5.24999ZM8.8425 4.37801C9.84343 3.96346 10.9163 3.75 11.9997 3.75C13.0831 3.75 14.1559 3.96345 15.1569 4.37801C16.1578 4.79256 17.0672 5.40026 17.8333 6.16639C18.5995 6.93251 19.2072 7.84194 19.6217 8.84286C20.0363 9.84379 20.2497 10.9167 20.2497 12C20.2497 13.0834 20.0363 14.1563 19.6217 15.1572C19.2072 16.1581 18.5995 17.0676 17.8333 17.8337C17.0672 18.5998 16.1578 19.2075 15.1569 19.6221C14.1559 20.0366 13.0831 20.2501 11.9997 20.2501C10.9163 20.2501 9.84343 20.0366 8.8425 19.6221C7.84157 19.2075 6.93214 18.5998 6.16602 17.8337C5.39989 17.0676 4.79218 16.1581 4.37764 15.1572C3.96309 14.1563 3.74962 13.0834 3.74962 12C3.74962 10.9167 3.96307 9.84379 4.37764 8.84286C4.79219 7.84194 5.39989 6.93251 6.16602 6.16639C6.93214 5.40026 7.84157 4.79255 8.8425 4.37801ZM0.850179 5.62499C1.05735 5.26632 1.51607 5.14327 1.87473 5.35044L2.84909 5.91294C3.20777 6.12011 3.33061 6.57883 3.12364 6.93749C2.91647 7.29617 2.45775 7.41922 2.09909 7.21205L1.12473 6.64955C0.766056 6.44237 0.643008 5.98365 0.850179 5.62499ZM23.1493 5.62499C23.3565 5.98367 23.2334 6.44239 22.8747 6.64955L21.9004 7.21205C21.5417 7.41922 21.083 7.29617 20.8758 6.93749C20.6689 6.57882 20.7917 6.1201 21.1504 5.91294L22.1247 5.35044C22.4834 5.14327 22.9421 5.26632 23.1493 5.62499ZM9.35464 8.35944C10.1235 7.8009 11.0495 7.49999 11.9997 7.49999C12.4139 7.49999 12.7497 7.83586 12.7497 8.24999C12.7497 8.66412 12.4139 8.99999 11.9997 8.99999C11.3663 8.99999 10.7489 9.20047 10.2365 9.57294C9.72379 9.94521 9.34232 10.4705 9.14662 11.0729C9.01856 11.4668 8.59543 11.6825 8.20157 11.5544C7.80753 11.4264 7.59198 11.0035 7.72006 10.6094C8.01365 9.70559 8.58579 8.91797 9.35464 8.35944ZM-1.53269e-07 12C-1.53269e-07 11.5859 0.335866 11.25 0.75 11.25H1.875C2.28913 11.25 2.625 11.5859 2.625 12C2.625 12.4141 2.28913 12.75 1.875 12.75H0.75C0.335866 12.75 -1.53269e-07 12.4141 -1.53269e-07 12ZM21.375 12C21.375 11.5859 21.7109 11.25 22.125 11.25H23.25C23.6641 11.25 24 11.5859 24 12C24 12.4141 23.6641 12.75 23.25 12.75H22.125C21.7109 12.75 21.375 12.4141 21.375 12ZM3.12375 17.0625C3.33071 17.4212 3.20787 17.8799 2.8492 18.087L1.87484 18.6495C1.51616 18.8567 1.05745 18.7337 0.850286 18.375C0.643125 18.0163 0.766163 17.5576 1.12484 17.3504L2.0992 16.7879C2.45787 16.5808 2.91659 16.7038 3.12375 17.0625ZM20.8762 17.0625C21.0834 16.7038 21.5421 16.5808 21.9008 16.7879L22.8752 17.3504C23.2338 17.5576 23.3569 18.0163 23.1497 18.375C22.9425 18.7336 22.4838 18.8567 22.1252 18.6495L21.1508 18.087C20.7921 17.8799 20.6693 17.4211 20.8762 17.0625ZM6.9375 20.8761C7.29618 21.0833 7.41923 21.542 7.21205 21.9007L6.64955 22.875C6.44238 23.2337 5.98366 23.3568 5.625 23.1496C5.26634 22.9424 5.14327 22.4837 5.35045 22.125L5.91295 21.1507C6.12012 20.792 6.57884 20.6692 6.9375 20.8761ZM17.0625 20.8761C17.4212 20.6692 17.8799 20.792 18.0871 21.1507L18.6496 22.125C18.8567 22.4837 18.7337 22.9424 18.375 23.1496C18.0163 23.3567 17.5576 23.2337 17.3504 22.875L16.7879 21.9007C16.5808 21.542 16.7038 21.0833 17.0625 20.8761ZM12 21.375C12.4141 21.375 12.75 21.7109 12.75 22.125V23.25C12.75 23.6641 12.4141 24 12 24C11.5859 24 11.25 23.6641 11.25 23.25V22.125C11.25 21.7109 11.5859 21.375 12 21.375Z" fill="black"/>
</svg>
