<svg width="24" height="23" viewBox="0 0 24 23" fill="none" xmlns="http://www.w3.org/2000/svg">
<path d="M9.81794 0.000203682C8.98386 -0.00452314 8.14306 0.229849 7.41496 0.712983C5.86179 1.74381 5.15339 3.67119 5.65991 5.46521C5.76744 5.83823 6.15623 6.05451 6.52984 5.94912C6.90523 5.84395 7.12424 5.45458 7.01927 5.07919C6.67775 3.87013 7.14984 2.58499 8.19666 1.89036C9.24347 1.19573 10.6137 1.25639 11.595 2.04064C12.5764 2.82491 12.9378 4.14484 12.4911 5.31906C12.0444 6.49327 10.8947 7.23973 9.64007 7.17333H9.6249C9.61801 7.17313 9.61092 7.17313 9.60402 7.17333H0.703488C0.516387 7.17412 0.337161 7.24916 0.205203 7.3821C0.0734422 7.51484 -0.000412159 7.69466 0.000374383 7.88196C0.00116219 8.27015 0.315299 8.58486 0.703473 8.58647H9.5667C11.4283 8.68494 13.1461 7.56588 13.8088 5.82364C14.4716 4.0814 13.9306 2.10007 12.4743 0.936285C11.7462 0.354496 10.8729 0.0435088 9.98442 0.00433292C9.92888 0.00196951 9.87315 0.000590865 9.8176 0L9.81794 0.000203682ZM19.7233 3.54333C18.8899 3.53899 18.054 3.77849 17.3258 4.2616C15.7727 5.29243 15.0629 7.21426 15.5694 9.00833C15.6199 9.18894 15.7402 9.34197 15.9037 9.43375C16.0671 9.52553 16.2603 9.54857 16.4407 9.49776C16.6211 9.44616 16.7738 9.32483 16.8646 9.16058C16.9554 8.99632 16.977 8.80252 16.9246 8.6223C16.5831 7.41324 17.0607 6.13365 18.1075 5.43897C19.1543 4.74434 20.5231 4.80086 21.5045 5.5851C22.4859 6.36938 22.8474 7.69344 22.4006 8.86766C21.9539 10.0419 20.8055 10.7883 19.5509 10.7219C19.5417 10.7221 19.5326 10.7227 19.5234 10.7233C19.5206 10.7229 19.5178 10.7223 19.5151 10.7219H0.703105C0.315506 10.7235 0.00156926 11.0373 6.25485e-06 11.425C-0.000781548 11.6121 0.0728774 11.7921 0.204835 11.9249C0.336596 12.0578 0.515822 12.1329 0.70312 12.1337H19.5151C19.5316 12.1339 19.5482 12.1333 19.5647 12.1323C21.3924 12.192 23.0675 11.0817 23.72 9.36668C24.3828 7.62444 23.8417 5.64865 22.3854 4.48487C21.6573 3.90308 20.7785 3.5866 19.8901 3.54737C19.8345 3.54501 19.7788 3.54363 19.7233 3.54343L19.7233 3.54333ZM15.8052 14.2015C15.7187 14.2007 15.6319 14.2038 15.5446 14.2084H0.703177C0.516076 14.2092 0.336654 14.2842 0.204893 14.4171C0.0729351 14.5501 -0.000722587 14.7299 6.39553e-05 14.917C0.00163956 15.3048 0.315578 15.6185 0.703162 15.6201H15.5804C15.5836 15.6197 15.5869 15.6193 15.5901 15.6187C15.5987 15.6193 15.6074 15.6199 15.6163 15.6201C16.8708 15.5537 18.0207 16.3002 18.4673 17.4744C18.914 18.6486 18.5526 19.9686 17.5712 20.7528C16.5898 21.5371 15.221 21.5977 14.1742 20.9031C13.1274 20.2084 12.654 18.9233 12.9955 17.7142C13.1004 17.3389 12.8812 16.9495 12.506 16.8443C12.1306 16.7393 11.7411 16.9583 11.6361 17.3337C11.1295 19.1278 11.8435 21.051 13.3966 22.0818C14.1732 22.5973 15.0725 22.8296 15.9609 22.7905C16.8494 22.7513 17.724 22.4389 18.4521 21.8571C19.9084 20.6933 20.448 18.7175 19.7853 16.9753C19.1535 15.3146 17.5645 14.2154 15.8051 14.2014L15.8052 14.2015Z" fill="black"/>
</svg>
