<svg width="24" height="25" viewBox="0 0 24 25" fill="none" xmlns="http://www.w3.org/2000/svg">
<path d="M21.0485 6.24548C21.0629 6.08351 21.0696 5.93514 21.0696 5.79054C21.0696 2.59779 18.4718 0 15.2791 0C13.357 0 11.5915 0.936857 10.5079 2.51893C10.0082 2.34147 9.48545 2.25149 8.95017 2.25149C6.62463 2.25149 4.69981 3.91869 4.34597 6.1802C4.16852 6.15467 3.99211 6.14191 3.81884 6.14191C1.713 6.14191 0 7.85512 0 9.96096C0 12.0668 1.71305 13.7798 3.81884 13.7798H20.1812C22.287 13.7798 24 12.0667 24 9.96096C24 8.16236 22.7752 6.6427 21.0485 6.2453L21.0485 6.24548ZM20.1811 13.1803H3.8188C2.04403 13.1803 0.599908 11.7362 0.599908 9.9614C0.599908 8.18642 2.04403 6.7423 3.8188 6.7423C4.05297 6.7423 4.29487 6.77034 4.53805 6.826C4.62176 6.84546 4.71111 6.82726 4.78143 6.77599C4.85153 6.72493 4.89589 6.64604 4.90363 6.55961C5.08465 4.48039 6.86215 2.85188 8.95015 2.85188C9.48983 2.85188 10.0145 2.95672 10.5104 3.16326C10.6452 3.21976 10.8021 3.16996 10.8802 3.04545C11.838 1.51448 13.4824 0.600392 15.2791 0.600392C18.1412 0.600392 20.4697 2.92887 20.4697 5.79077C20.4697 5.98852 20.4548 6.1982 20.4228 6.45018C20.4023 6.61152 20.5143 6.75968 20.6748 6.78437C22.2539 7.02816 23.4 8.3643 23.4 9.96143C23.4 11.7362 21.9559 13.1803 20.1811 13.1803Z" fill="black"/>
<path d="M3.82422 23.9219C4.04478 23.9899 4.27016 24.0236 4.4945 24.0236C4.85988 24.0236 5.22233 23.9343 5.55441 23.7581C6.09034 23.4739 6.48399 22.9976 6.66308 22.4173C7.13392 20.8899 5.73581 18.669 5.67597 18.5752C5.6 18.4568 5.4531 18.4062 5.32127 18.4543C5.22082 18.4905 2.85532 19.3612 2.32544 21.0805C2.14674 21.6608 2.20386 22.276 2.48679 22.8126C2.76971 23.3492 3.24495 23.7432 3.82422 23.9219ZM2.89904 21.2569C3.25437 20.1039 4.7255 19.3616 5.29679 19.112C5.61612 19.6747 6.40443 21.2191 6.08949 22.2407C5.95786 22.6682 5.66782 23.0187 5.27338 23.2282C4.87933 23.4371 4.42818 23.4804 4.00127 23.3488C3.57521 23.2175 3.22572 22.9275 3.01775 22.5326C2.80933 22.1373 2.76726 21.6843 2.8991 21.257L2.89904 21.2569Z" fill="black"/>
<path d="M8.92905 20.3219C9.14961 20.3899 9.37498 20.4236 9.59933 20.4236C9.9647 20.4236 10.3272 20.3342 10.6592 20.1581C11.1952 19.8739 11.5888 19.3976 11.7679 18.8175C12.239 17.2899 10.8406 15.069 10.7808 14.9752C10.7048 14.8566 10.5565 14.8059 10.4261 14.8543C10.3256 14.8905 7.96058 15.7612 7.43027 17.4805C7.25156 18.0608 7.30869 18.676 7.59161 19.2126C7.87453 19.7492 8.34978 20.1432 8.92905 20.3219ZM8.00371 17.6569C8.35945 16.5029 9.83306 15.7602 10.4031 15.5111C10.8095 16.221 11.4844 17.6994 11.1942 18.6402V18.6405C11.0625 19.068 10.7725 19.4185 10.378 19.628C9.98421 19.8368 9.53285 19.8804 9.10594 19.7485C8.67988 19.6173 8.33038 19.3273 8.12242 18.9324C7.9142 18.5373 7.87193 18.0843 8.00377 17.6569L8.00371 17.6569Z" fill="black"/>
<path d="M13.7344 23.9219C13.9558 23.9901 14.1799 24.0228 14.4007 24.0228C15.3706 24.0228 16.2722 23.3937 16.5733 22.4175V22.4173C17.0441 20.8899 15.646 18.669 15.5862 18.5752C15.5102 18.4568 15.3633 18.4061 15.2315 18.4543C15.131 18.4905 12.7655 19.3612 12.2359 21.0803C12.0565 21.6606 12.1141 22.2758 12.397 22.8126C12.6799 23.3492 13.1551 23.7432 13.7344 23.9219ZM12.8092 21.2569C13.1645 20.1039 14.6357 19.3616 15.207 19.112C15.5263 19.6747 16.3146 21.2191 15.9997 22.2407V22.2405C15.7278 23.123 14.7891 23.6197 13.9114 23.3488C13.4852 23.2173 13.1359 22.9275 12.9277 22.5326C12.7193 22.1373 12.677 21.6843 12.8093 21.257L12.8092 21.2569Z" fill="black"/>
<path d="M18.8387 20.3219C19.0592 20.3899 19.2846 20.4236 19.509 20.4236C19.8743 20.4236 20.2368 20.3342 20.5689 20.1581C21.1048 19.8739 21.4985 19.3976 21.6775 18.8173C22.1484 17.2899 20.7503 15.069 20.6904 14.9752C20.6145 14.8566 20.4671 14.8059 20.3357 14.8543C20.2353 14.8905 17.8698 15.7612 17.3399 17.4805C17.1612 18.0608 17.2183 18.676 17.5013 19.2126C17.7842 19.7492 18.2594 20.1432 18.8387 20.3219ZM17.9133 17.6569C18.2687 16.5039 19.7398 15.7616 20.3111 15.512C20.6304 16.0747 21.4187 17.6191 21.1038 18.6407C20.9722 19.0682 20.6821 19.4187 20.2877 19.6282C19.8938 19.8371 19.4425 19.8806 19.0156 19.7487C18.5895 19.6175 18.24 19.3275 18.0321 18.9326C17.8238 18.5373 17.7816 18.0843 17.9134 17.657L17.9133 17.6569Z" fill="black"/>
</svg>
