<svg width="24" height="24" viewBox="0 0 24 24" fill="none" xmlns="http://www.w3.org/2000/svg">
<path d="M3.81913 13.7798H20.1812C22.287 13.7798 24 12.0667 24 9.96099C24 8.16241 22.7752 6.64277 21.0486 6.24538C21.063 6.08342 21.0697 5.93505 21.0697 5.79045C21.0697 2.59775 18.472 0 15.2793 0C13.3572 0 11.5917 0.936843 10.5082 2.51889C10.0084 2.34144 9.4857 2.25146 8.95042 2.25146C6.62492 2.25146 4.70013 3.91863 4.3463 6.18011C4.16884 6.15458 3.99244 6.14182 3.81917 6.14182C1.71336 6.14182 0.000389099 7.85501 0.000389099 9.96081C0.000389099 12.0666 1.71342 13.7796 3.81917 13.7796L3.81913 13.7798ZM3.81913 6.74166C4.0533 6.74166 4.2952 6.7697 4.53837 6.82536C4.62249 6.84462 4.71143 6.82641 4.78174 6.77535C4.85185 6.72429 4.89621 6.6454 4.90395 6.55897C5.08496 4.47979 6.86244 2.8513 8.95041 2.8513C9.49008 2.8513 10.0147 2.95614 10.5107 3.16268C10.6456 3.21918 10.8024 3.16916 10.8804 3.04486C11.8382 1.51392 13.4826 0.599847 15.2793 0.599847C18.1413 0.599847 20.4698 2.92829 20.4698 5.79014C20.4698 5.9879 20.4549 6.19758 20.4229 6.44955C20.4024 6.61088 20.5143 6.75904 20.6748 6.78374C22.2539 7.02752 23.4 8.36364 23.4 9.96074C23.4 11.7355 21.9559 13.1796 20.1812 13.1796H3.81911C2.04437 13.1796 0.600266 11.7355 0.600266 9.96074C0.600266 8.18579 2.04439 6.74166 3.81913 6.74166Z" fill="black"/>
<path d="M2.76433 16.7465C2.59859 16.7465 2.46425 16.8809 2.46425 17.0466C2.46425 17.2123 2.59838 17.3467 2.76433 17.3467H22.4114C22.5771 17.3467 22.7114 17.2123 22.7114 17.0466C22.7114 16.8809 22.5773 16.7465 22.4114 16.7465H2.76433Z" fill="black"/>
<path d="M0.300082 20.6732H19.9471C20.1128 20.6732 20.2472 20.5389 20.2472 20.3732C20.2472 20.2074 20.1131 20.0731 19.9471 20.0731L0.300082 20.0733C0.134345 20.0733 0 20.2076 0 20.3734C0 20.5389 0.134136 20.6732 0.300082 20.6732Z" fill="black"/>
<path d="M23.6997 23.4H4.05271C3.88697 23.4 3.75262 23.5343 3.75262 23.7001C3.75262 23.8658 3.88676 24.0002 4.05271 24.0002L23.6997 23.9999C23.8655 23.9999 23.9998 23.8656 23.9998 23.6999C23.9998 23.5343 23.8657 23.4 23.6997 23.4Z" fill="black"/>
</svg>
