<svg width="24" height="24" viewBox="0 0 24 24" fill="none" xmlns="http://www.w3.org/2000/svg">
<path d="M19.335 2.79683C18.7195 2.79683 18.1243 2.9157 17.5604 3.15049C17.1366 1.32884 15.5019 0 13.6049 0C12.3376 0 11.1477 0.593251 10.3795 1.5975C9.92603 1.46944 9.46123 1.40477 8.99457 1.40477C6.81217 1.40477 4.90599 2.75659 4.17147 4.79547C4.01013 4.77413 3.84753 4.76325 3.68556 4.76325C1.65338 4.76325 0 6.42273 0 8.46263C0 10.5023 1.65338 12.1618 3.68578 12.1618H19.3351C21.9074 12.1618 24.0002 10.0612 24.0002 7.47932C24.0002 4.89723 21.9074 2.79685 19.3351 2.79685L19.335 2.79683ZM19.335 11.5617H3.68563C1.98409 11.5617 0.599803 10.1713 0.599803 8.46245C0.599803 6.75341 1.98409 5.36307 3.68542 5.36307C3.89552 5.36307 4.10688 5.38483 4.31381 5.42773C4.46594 5.45891 4.6164 5.36977 4.66182 5.22139C5.24837 3.29742 6.98945 2.00458 8.99442 2.00458C9.47028 2.00458 9.94424 2.08096 10.4034 2.23184C10.5304 2.27328 10.6694 2.22619 10.7449 2.11591C11.3926 1.16668 12.4617 0.599782 13.6047 0.599782C15.3368 0.599782 16.8125 1.90055 17.0371 3.62534C17.0496 3.72223 17.109 3.80719 17.1957 3.85239C17.2827 3.8978 17.3861 3.89801 17.4727 3.85281C18.0558 3.55001 18.6823 3.39641 19.3346 3.39641C21.5762 3.39662 23.4 5.22807 23.4 7.47915C23.4 9.73023 21.5762 11.5617 19.3348 11.5617L19.335 11.5617Z" fill="black"/>
<path d="M11.6999 23.6999C11.6999 23.8657 11.8343 24 12 24C12.1657 24 12.3001 23.8657 12.3001 23.6999V20.0715C12.3001 19.9058 12.1657 19.7714 12 19.7714C11.8343 19.7714 11.6999 19.9058 11.6999 20.0715V23.6999Z" fill="black"/>
<path d="M11.9999 18.0272C12.1657 18.0272 12.3 17.8929 12.3 17.7271V14.0924C12.3 13.9267 12.1657 13.7923 11.9999 13.7923C11.8342 13.7923 11.6999 13.9267 11.6999 14.0924V17.7271C11.6999 17.8929 11.8342 18.0272 11.9999 18.0272Z" fill="black"/>
<path d="M15.5999 23.6999V14.0924C15.5999 13.9267 15.4656 13.7923 15.2998 13.7923C15.1341 13.7923 14.9998 13.9267 14.9998 14.0924L15 23.6999C15 23.8657 15.1343 24 15.3001 24C15.4656 24 15.5999 23.8657 15.5999 23.6999Z" fill="black"/>
<path d="M8.99992 23.6999V14.0924C8.99992 13.9267 8.86558 13.7923 8.69984 13.7923C8.5341 13.7923 8.39975 13.9267 8.39975 14.0924L8.39996 23.6999C8.39996 23.8657 8.53431 24 8.70005 24C8.86557 24 8.99992 23.8657 8.99992 23.6999Z" fill="black"/>
</svg>
