<svg width="24" height="16" viewBox="0 0 24 16" fill="none" xmlns="http://www.w3.org/2000/svg">
<path d="M20.5715 4.60242C20.2009 2.47109 18.3167 0.864863 16.1236 0.864863C14.7337 0.864863 13.4364 1.51362 12.5716 2.59453C11.6449 0.988304 9.9152 0 8.06181 0C5.22012 0 2.90352 2.28576 2.84169 5.0964C1.1428 5.62147 0 7.1659 0 8.9574C0 11.1813 1.82233 13.0037 4.04627 13.0037C5.18907 13.0037 6.2702 12.5094 7.0424 11.6756C7.84543 13.8688 9.94592 15.3513 12.3244 15.3513C14.6101 15.3513 16.6178 13.9922 17.5134 11.9228C18.2238 12.4478 19.0578 12.7258 19.9227 12.7258C22.1774 12.7258 24 10.9034 24 8.64846C24 6.61024 22.5483 4.94218 20.5715 4.60242ZM19.892 12.1082C19.0271 12.1082 18.1931 11.7992 17.5445 11.2126C17.4827 11.1507 17.3592 11.1199 17.2666 11.1507C17.1739 11.1815 17.0813 11.2434 17.0503 11.367C16.3707 13.3745 14.4557 14.7646 12.2936 14.7646C10.0079 14.7646 8.0002 13.2202 7.44411 10.9654C7.4133 10.842 7.32065 10.7491 7.19698 10.7491H7.13514C7.04249 10.7491 6.94985 10.811 6.88801 10.8726C6.23925 11.83 5.18912 12.417 4.04632 12.417C2.16215 12.417 0.617753 10.8726 0.617753 8.98841C0.617753 7.41318 1.69894 6.02305 3.24334 5.65251C3.39782 5.6217 3.49047 5.49802 3.49047 5.34354V5.25089C3.49047 2.71797 5.55997 0.648532 8.09283 0.648532C9.88434 0.648532 11.5214 1.69867 12.2936 3.33573C12.3554 3.42838 12.4481 3.52102 12.5407 3.52102C12.6642 3.52102 12.757 3.45919 12.8187 3.36654C13.529 2.19274 14.7955 1.51315 16.1546 1.51315C18.1314 1.51315 19.7992 2.99572 20.0464 4.94172C20.0772 5.0962 20.1699 5.18885 20.3243 5.21966C22.0851 5.40495 23.4131 6.8875 23.4131 8.67905C23.3823 10.5639 21.8069 12.1083 19.8919 12.1083L19.892 12.1082Z" fill="black"/>
</svg>
