<svg width="24" height="24" viewBox="0 0 24 24" fill="none" xmlns="http://www.w3.org/2000/svg">
<path d="M14.1857 2.78168H14.2462C14.3971 2.75157 14.5178 2.60061 14.4876 2.44965L14.1253 0.246129C14.0952 0.0951705 13.9442 -0.02547 13.7933 0.00463758C13.6423 0.0347446 13.5217 0.185704 13.5518 0.336662L13.9139 2.53997C13.9141 2.69114 14.0348 2.78168 14.1857 2.78168Z" fill="black"/>
<path d="M17.3248 3.11369C17.3549 3.11369 17.3852 3.14379 17.4454 3.14379C17.5661 3.14379 17.6869 3.08337 17.717 2.96273L18.5017 0.880043C18.5621 0.729085 18.4716 0.548019 18.3206 0.487599C18.1697 0.427174 17.9886 0.517706 17.9282 0.668665L17.1435 2.75135C17.1136 2.8722 17.174 3.05326 17.3248 3.11369Z" fill="black"/>
<path d="M20.1016 5.01522C20.162 5.01522 20.2526 4.98511 20.2827 4.95479L22.0032 3.53619C22.1238 3.41555 22.1542 3.23427 22.0333 3.11364C21.9127 2.993 21.7314 2.96268 21.6108 3.08353L19.8902 4.50213C19.7696 4.62277 19.7393 4.80405 19.8601 4.92469C19.9509 4.98511 20.0414 5.01522 20.1016 5.01522Z" fill="black"/>
<path d="M23.633 7.00731L21.4297 7.39975C21.2788 7.42986 21.1581 7.58082 21.1882 7.76188C21.2183 7.91284 21.3392 8.00338 21.4901 8.00338H21.5506L23.7539 7.61093C23.9048 7.58082 24.0255 7.42987 23.9954 7.2488C23.965 7.09784 23.7838 6.9772 23.633 7.00731Z" fill="black"/>
<path d="M23.4217 11.414L21.3391 10.6594C21.1881 10.599 21.007 10.6895 20.9466 10.8405C20.8862 10.9915 20.9767 11.1725 21.1277 11.233L23.2104 11.9875C23.2405 11.9875 23.2708 12.0176 23.3009 12.0176C23.4215 12.0176 23.5424 11.9271 23.5725 11.8063C23.6632 11.6553 23.5727 11.4742 23.4217 11.414Z" fill="black"/>
<path d="M6.88143 6.464L8.99419 7.12803H9.08472C9.20536 7.12803 9.32621 7.03749 9.38664 6.91664C9.44706 6.76569 9.35653 6.58462 9.20557 6.5242L7.09281 5.86017C6.94185 5.79975 6.76079 5.89028 6.70037 6.04124C6.63994 6.25262 6.73047 6.43368 6.88143 6.464Z" fill="black"/>
<path d="M10.6241 4.29084C10.6846 4.35126 10.7751 4.38137 10.8355 4.38137C10.8959 4.38137 10.9865 4.35126 11.0469 4.29084C11.1675 4.1702 11.1675 3.98892 11.077 3.86828L9.56786 2.23851C9.44722 2.11787 9.26594 2.11787 9.14531 2.2084C9.02467 2.32904 9.02467 2.51032 9.1152 2.63095L10.6241 4.29084Z" fill="black"/>
<path d="M20.1016 12.5912C20.0111 12.1385 19.8601 11.6856 19.6489 11.2934C20.2225 10.2974 20.4337 9.12022 20.2526 8.0035C20.0412 6.64532 19.3169 5.46818 18.2002 4.68326C17.0835 3.86826 15.7554 3.56654 14.3972 3.77772C11.9524 4.17016 10.1717 6.19241 10.0811 8.63719C9.41711 8.30516 8.66253 8.1241 7.87783 8.1241C5.10099 8.1241 2.83726 10.3577 2.77684 13.1042C1.11672 13.6173 0 15.1265 0 16.8771C0 19.0503 1.78075 20.831 3.95392 20.831C5.07064 20.831 6.1271 20.348 6.88168 19.5332C7.66638 21.6763 9.71894 23.1251 12.0431 23.1251C14.2767 23.1251 16.2385 21.797 17.1137 19.7748C17.8079 20.2878 18.6229 20.5595 19.468 20.5595C21.6713 20.5595 23.4523 18.7787 23.4523 16.5752C23.4519 14.5529 22.0335 12.9231 20.1015 12.5911L20.1016 12.5912ZM10.6845 8.93891C10.6241 6.67518 12.2238 4.71339 14.4875 4.35103C15.6646 4.16997 16.8719 4.44156 17.8378 5.16603C18.8038 5.86018 19.4676 6.91664 19.6489 8.09378C19.7999 8.96898 19.6489 9.90487 19.2868 10.7197C18.9849 10.3272 18.5926 9.96508 18.1701 9.69348C17.7475 9.42188 17.2949 9.24082 16.8119 9.11995C16.7818 9.11995 16.7515 9.11995 16.7213 9.08984C16.6007 9.05974 16.4799 9.02942 16.3289 9.02942C16.2988 9.02942 16.2685 9.02942 16.2083 8.99931C16.0573 8.96921 15.9063 8.96921 15.7253 8.96921C14.6991 8.96921 13.7635 9.30123 12.9786 9.93517L12.9485 9.96528C12.9184 9.99538 12.9184 9.99538 12.888 10.0257C12.6465 10.2068 12.4354 10.4483 12.2541 10.6897C12.1636 10.5388 12.073 10.3878 11.9522 10.2672C11.9221 10.2371 11.9221 10.2068 11.8917 10.2068C11.8012 10.0861 11.6804 9.93515 11.5597 9.81431C11.5296 9.7842 11.4993 9.75388 11.4692 9.72378C11.3485 9.60313 11.2277 9.48228 11.1071 9.39175C11.077 9.36164 11.0466 9.36164 11.0466 9.33133C10.9864 9.15026 10.8355 9.05954 10.6845 8.93891ZM19.4376 19.9255C18.5925 19.9255 17.7775 19.6236 17.1437 19.0503C17.0833 18.9899 16.9627 18.9598 16.8721 18.9899C16.7816 19.02 16.6911 19.0804 16.6607 19.2013C15.9967 21.1631 14.1252 22.5213 12.0124 22.5213C9.77884 22.5213 7.817 21.0122 7.27359 18.8089C7.24349 18.6882 7.15295 18.5975 7.0321 18.5975H6.97168C6.88115 18.5975 6.79061 18.6579 6.73019 18.7181C6.09624 19.6537 5.07007 20.2273 3.95335 20.2273C2.11218 20.2273 0.60303 18.7181 0.60303 16.877C0.60303 15.3377 1.65954 13.9793 3.1687 13.6172C3.31965 13.5871 3.41019 13.4662 3.41019 13.3153V13.2247C3.41019 10.7496 5.43245 8.7274 7.90751 8.7274C8.78272 8.7274 9.59771 8.9689 10.2919 9.42156C10.3523 9.45167 10.3824 9.48199 10.4428 9.51209C10.4729 9.5422 10.5334 9.57252 10.5635 9.60263C10.6239 9.63273 10.654 9.66305 10.7144 9.72327C10.7445 9.75337 10.805 9.78369 10.8351 9.8138C10.8652 9.84391 10.9256 9.87423 10.9557 9.93444C10.9858 9.96455 11.0462 9.99487 11.0763 10.0551C11.1065 10.0852 11.1368 10.1155 11.1669 10.1757C11.197 10.2058 11.2574 10.2663 11.2875 10.2964C11.3176 10.3265 11.3479 10.3568 11.3781 10.3869C11.4082 10.4473 11.4686 10.4774 11.4987 10.5379C11.5288 10.568 11.5591 10.5983 11.5591 10.6284C11.5892 10.6888 11.6497 10.749 11.6798 10.7793C11.7099 10.8095 11.7402 10.8699 11.7703 10.9C11.8004 10.9604 11.8307 10.9905 11.8608 11.0509C11.9212 11.1415 11.9514 11.232 12.0118 11.3529C12.0722 11.4434 12.1627 11.5339 12.2533 11.5339C12.3739 11.5339 12.4647 11.4735 12.5249 11.383C13.219 10.236 14.4566 9.57188 15.7846 9.57188C15.9356 9.57188 16.0866 9.57188 16.2373 9.60199H16.3278C16.4788 9.63209 16.5994 9.66241 16.7504 9.69252C16.9013 9.72262 17.0523 9.78305 17.203 9.84348C17.9576 10.1454 18.6216 10.7187 19.0442 11.4432C19.2857 11.8657 19.4668 12.3788 19.5272 12.8919C19.5573 13.0429 19.6478 13.1334 19.7988 13.1635C21.5193 13.3446 22.8171 14.7933 22.8171 16.544C22.848 18.4165 21.3088 19.9256 19.4375 19.9256L19.4376 19.9255Z" fill="black"/>
</svg>
