<svg width="24" height="24" viewBox="0 0 24 24" fill="none" xmlns="http://www.w3.org/2000/svg">
<path d="M21.0487 11.7209C21.0629 11.565 21.0696 11.421 21.0696 11.2801C21.0698 8.18618 18.472 5.66882 15.2791 5.66882C13.6897 5.66882 12.2088 6.29094 11.1306 7.37239C11.1338 7.31135 11.1392 7.25052 11.1392 7.18908C11.1392 5.20117 9.47037 3.58377 7.41875 3.58377C5.36735 3.58397 3.6985 5.20117 3.6985 7.18908C3.6985 8.25734 4.1798 9.24857 5.01726 9.936C4.68307 10.4464 4.44764 11.027 4.34575 11.6576C4.1685 11.6329 3.9923 11.6205 3.81903 11.6205C1.71304 11.6205 0 13.2807 0 15.3214C0 17.362 1.71305 19.022 3.81882 19.022H20.1811C22.2869 19.022 23.9999 17.362 23.9999 15.3214C23.9999 13.5784 22.7751 12.1058 21.0484 11.7207L21.0487 11.7209ZM4.29856 7.18931C4.29856 5.52202 5.69832 4.16558 7.41887 4.16558C9.13941 4.16558 10.5392 5.52202 10.5392 7.18931C10.5392 7.49348 10.4906 7.79098 10.3998 8.07769C9.93231 7.92905 9.44683 7.85057 8.95022 7.85057C7.51007 7.85057 6.22479 8.47109 5.36974 9.4633C4.68922 8.888 4.29853 8.07017 4.29853 7.18925L4.29856 7.18931ZM20.1813 18.4409H3.8191C2.04413 18.4409 0.600223 17.0415 0.600223 15.3217C0.600223 13.6017 2.04413 12.2022 3.8191 12.2022C4.05327 12.2022 4.29538 12.2294 4.53813 12.2833C4.62309 12.302 4.71119 12.2844 4.78172 12.2349C4.85182 12.1854 4.89639 12.109 4.90392 12.0252C5.08514 10.0104 6.86259 8.43204 8.95042 8.43204C9.48945 8.43204 10.0147 8.53364 10.5109 8.73419C10.6471 8.78854 10.8026 8.74027 10.8807 8.62002C11.8382 7.13625 13.4826 6.25045 15.2793 6.25045C18.1414 6.25045 20.4697 8.50685 20.4697 11.2801C20.4697 11.4738 20.4548 11.6768 20.423 11.9189C20.4025 12.0753 20.5143 12.2191 20.675 12.243C22.2541 12.4792 23.4002 13.774 23.4002 15.3217C23.4002 17.0415 21.9563 18.4409 20.1813 18.4409Z" fill="black"/>
<path d="M7.71919 2.26635V0.290796C7.71919 0.130187 7.58484 0 7.4191 0C7.25336 0 7.11902 0.130187 7.11902 0.290796V2.26635C7.11902 2.42695 7.25336 2.55714 7.4191 2.55714C7.58484 2.55694 7.71919 2.42675 7.71919 2.26635Z" fill="black"/>
<path d="M3.59949 1.3603L4.61879 3.07099C4.67445 3.16427 4.77532 3.21639 4.8789 3.21639C4.92975 3.21639 4.98123 3.20381 5.02853 3.17745C5.17208 3.09715 5.22105 2.9193 5.13839 2.7802L4.11909 1.06951C4.0358 0.930195 3.85291 0.882336 3.70915 0.963046C3.5658 1.04355 3.51683 1.22119 3.59949 1.3603Z" fill="black"/>
<path d="M3.16929 4.47597L1.40396 3.48823C1.25999 3.40772 1.07688 3.45558 0.994019 3.59469C0.911359 3.7338 0.960328 3.91144 1.10388 3.99194L2.86921 4.97969C2.91651 5.00605 2.96799 5.01863 3.01884 5.01863C3.12263 5.01863 3.22329 4.96651 3.27895 4.87323C3.36203 4.73391 3.31306 4.55627 3.16929 4.47597Z" fill="black"/>
<path d="M0.300085 7.48017H2.33873C2.50447 7.48017 2.63882 7.34998 2.63882 7.18937C2.63882 7.02876 2.50447 6.89857 2.33873 6.89857L0.300085 6.89878C0.134346 6.89878 0 7.02897 0 7.18957C0 7.34997 0.134346 7.48017 0.300085 7.48017Z" fill="black"/>
<path d="M2.86934 9.39889L1.104 10.3866C0.96045 10.4669 0.911481 10.6448 0.994141 10.7839C1.04981 10.8772 1.15067 10.9293 1.25426 10.9293C1.30511 10.9293 1.35659 10.9167 1.40388 10.8904L3.16921 9.9026C3.31277 9.8223 3.36174 9.64446 3.27907 9.50535C3.19621 9.36624 3.01289 9.31858 2.86934 9.39889Z" fill="black"/>
<path d="M11.819 5.01847C11.8698 5.01847 11.9213 5.0059 11.9686 4.97954L13.7342 3.99179C13.8775 3.91149 13.9267 3.73364 13.844 3.59454C13.7609 3.45542 13.5776 3.40757 13.4341 3.48807L11.6685 4.47582C11.5252 4.55613 11.476 4.73397 11.5587 4.87308C11.6145 4.96636 11.7154 5.01847 11.819 5.01847Z" fill="black"/>
<path d="M9.95903 3.21657C10.0628 3.21657 10.1635 3.16445 10.2191 3.07117L11.2384 1.36048C11.3211 1.22137 11.2721 1.04373 11.1286 0.963229C10.9846 0.88252 10.8015 0.930378 10.7186 1.06969L9.69934 2.78038C9.61668 2.91949 9.66565 3.09713 9.80921 3.17764C9.8565 3.2042 9.90818 3.21657 9.95903 3.21657Z" fill="black"/>
<path d="M7.96541 20.35C7.80705 20.35 7.67868 20.4742 7.67868 20.6279V21.9561L6.37543 21.5455C6.22346 21.498 6.06311 21.578 6.01412 21.7239C5.96514 21.8696 6.04771 22.0264 6.19808 22.0739L7.50174 22.4844L6.69597 23.559C6.60279 23.6832 6.63139 23.8568 6.75915 23.9469C6.81014 23.9828 6.86892 24 6.92731 24C7.01609 24 7.10346 23.9605 7.15945 23.8855L7.96543 22.8107L8.77121 23.8855C8.8272 23.9603 8.91457 24 9.00335 24C9.06193 24 9.12072 23.9826 9.17151 23.9469C9.29947 23.8568 9.32807 23.6832 9.23469 23.559L8.42891 22.4844L9.73258 22.0739C9.88294 22.0264 9.96552 21.8696 9.91654 21.7239C9.86755 21.578 9.70679 21.4976 9.55523 21.5455L8.25197 21.9561V20.6279C8.25197 20.4742 8.12377 20.35 7.96541 20.35Z" fill="black"/>
<path d="M14.9654 20.35C14.807 20.35 14.6787 20.4742 14.6787 20.6279V21.9561L13.3754 21.5455C13.2235 21.498 13.0631 21.578 13.0141 21.7239C12.9651 21.8696 13.0477 22.0264 13.1981 22.0739L14.5017 22.4844L13.696 23.559C13.6028 23.6832 13.6314 23.8568 13.7592 23.9469C13.8101 23.9828 13.8689 24 13.9273 24C14.0161 24 14.1035 23.9605 14.1594 23.8855L14.9654 22.8107L15.7712 23.8855C15.8272 23.9603 15.9146 24 16.0033 24C16.0619 24 16.1207 23.9826 16.1715 23.9469C16.2995 23.8568 16.3281 23.6832 16.2347 23.559L15.4289 22.4844L16.7326 22.0739C16.8829 22.0264 16.9655 21.8696 16.9165 21.7239C16.8675 21.578 16.7068 21.4976 16.5552 21.5455L15.252 21.9561V20.6279C15.252 20.4742 15.1238 20.35 14.9654 20.35Z" fill="black"/>
</svg>
