<svg width="24" height="24" viewBox="0 0 24 24" fill="none" xmlns="http://www.w3.org/2000/svg">
<path d="M19.335 2.79681C18.7196 2.79681 18.1242 2.91567 17.5602 3.15046C17.1365 1.32883 15.5017 0 13.6048 0C12.3377 0 11.1481 0.593246 10.3794 1.59728C9.92616 1.46942 9.46159 1.40475 8.9945 1.40475C6.81212 1.40475 4.90596 2.75656 4.17102 4.79543C4.00989 4.77408 3.8475 4.7632 3.68553 4.7632C1.65358 4.7632 0 6.42267 0 8.46255C0 10.5022 1.65358 12.1617 3.68574 12.1617H19.3349C21.9074 12.1617 24 10.0611 24 7.47925C24 4.89718 21.9074 2.79682 19.3351 2.79682L19.335 2.79681ZM19.335 11.5616H3.68582C1.9843 11.5616 0.600023 10.1712 0.600023 8.46238C0.600023 6.75335 1.9843 5.36302 3.68582 5.36302C3.89592 5.36302 4.10707 5.38478 4.31405 5.42768C4.46618 5.4597 4.61664 5.36972 4.66185 5.22135C5.24861 3.2974 6.98967 2.00457 8.99483 2.00457C9.4707 2.00457 9.94465 2.08095 10.4034 2.23182C10.5308 2.27389 10.6698 2.22659 10.7449 2.11589C11.393 1.16667 12.4621 0.599776 13.6049 0.599776C15.337 0.599776 16.8127 1.90032 17.0372 3.62531C17.0497 3.72241 17.109 3.80716 17.1956 3.85257C17.282 3.89777 17.3858 3.89798 17.4727 3.85299C18.0559 3.55019 18.6824 3.39659 19.3347 3.39659C21.5765 3.39659 23.4 5.22808 23.4 7.47908C23.4 9.73008 21.5765 11.5616 19.3351 11.5616H19.335Z" fill="black"/>
<path d="M18.3006 23.6997C18.3006 23.8654 18.4347 23.9998 18.6006 23.9998C18.7664 23.9998 18.9007 23.8654 18.9007 23.6997L18.9005 20.0713C18.9005 19.9056 18.7664 19.7713 18.6004 19.7713C18.4347 19.7713 18.3004 19.9056 18.3004 20.0713L18.3006 23.6997Z" fill="black"/>
<path d="M18.6006 18.0271C18.7663 18.0271 18.9006 17.8927 18.9006 17.727L18.9004 14.0923C18.9004 13.9266 18.7663 13.7922 18.6003 13.7922C18.4346 13.7922 18.3003 13.9266 18.3003 14.0923V17.727C18.3005 17.8927 18.4346 18.0271 18.6006 18.0271Z" fill="black"/>
<path d="M15 23.6997C15 23.8654 15.1342 23.9998 15.3001 23.9998C15.4659 23.9998 15.6002 23.8654 15.6002 23.6997V20.0713C15.6002 19.9056 15.4661 19.7713 15.3001 19.7713C15.1344 19.7713 15 19.9056 15 20.0713V23.6997Z" fill="black"/>
<path d="M15.3006 18.0271C15.4663 18.0271 15.6007 17.8927 15.6007 17.727V14.0923C15.6007 13.9266 15.4665 13.7922 15.3006 13.7922C15.1348 13.7922 15.0005 13.9266 15.0005 14.0923V17.727C15.0005 17.8927 15.1348 18.0271 15.3006 18.0271Z" fill="black"/>
<path d="M8.39954 23.6997C8.39954 23.8654 8.53367 23.9998 8.69962 23.9998C8.86536 23.9998 8.9997 23.8654 8.9997 23.6997V20.0713C8.9997 19.9056 8.86557 19.7713 8.69962 19.7713C8.53388 19.7713 8.39954 19.9056 8.39954 20.0713V23.6997Z" fill="black"/>
<path d="M8.69953 18.0271C8.86527 18.0271 8.99961 17.8927 8.99961 17.727V14.0923C8.99961 13.9266 8.86548 13.7922 8.69953 13.7922C8.53379 13.7922 8.39944 13.9266 8.39944 14.0923V17.727C8.39944 17.8927 8.53379 18.0271 8.69953 18.0271Z" fill="black"/>
<path d="M11.7 23.6997C11.7 23.8654 11.8342 23.9998 12.0001 23.9998C12.1659 23.9998 12.3002 23.8654 12.3002 23.6997V20.0713C12.3002 19.9056 12.1661 19.7713 12.0001 19.7713C11.8344 19.7713 11.7 19.9056 11.7 20.0713V23.6997Z" fill="black"/>
<path d="M12.0001 18.0271C12.1658 18.0271 12.3001 17.8927 12.3001 17.727V14.0923C12.3001 13.9266 12.166 13.7922 12.0001 13.7922C11.8343 13.7922 11.7 13.9266 11.7 14.0923V17.727C11.7 17.8927 11.8343 18.0271 12.0001 18.0271Z" fill="black"/>
<path d="M5.10009 23.6997C5.10009 23.8654 5.23423 23.9998 5.40018 23.9998C5.56592 23.9998 5.70026 23.8654 5.70026 23.6997L5.70005 20.0713C5.70005 19.9056 5.56592 19.7713 5.39997 19.7713C5.23423 19.7713 5.09988 19.9056 5.09988 20.0713L5.10009 23.6997Z" fill="black"/>
<path d="M5.39957 18.0271C5.56531 18.0271 5.69965 17.8927 5.69965 17.727V14.0923C5.69965 13.9266 5.56552 13.7922 5.39957 13.7922C5.23383 13.7922 5.09949 13.9266 5.09949 14.0923V17.727C5.0997 17.8927 5.23383 18.0271 5.39957 18.0271Z" fill="black"/>
</svg>
