<svg width="24" height="24" viewBox="0 0 24 24" fill="none" xmlns="http://www.w3.org/2000/svg">
<path d="M18.9243 22.0467L14.8058 17.9282L17.9278 14.8061L22.0464 18.9246L18.9243 22.0467Z" fill="black"/>
<path d="M1.95378 5.07623L6.0719 9.19455L9.1944 6.07246L5.07546 1.95435L1.95378 5.07623ZM6.0721 8.65496L2.49337 5.07644L5.07526 2.49455L8.65358 6.07267L6.0721 8.65496Z" fill="black"/>
<path d="M9.79205 18.1757H14.2077V24H9.79205V18.1757Z" fill="black"/>
<path d="M9.79205 5.82452L14.2075 5.82472V0.000401788L9.79205 0V5.82452ZM13.8258 0.381803V5.44251H10.1744V0.382009L13.8258 0.381803Z" fill="black"/>
<path d="M6.07273 14.8061L1.95399 18.9248L5.07568 22.0469L9.19441 17.9292L9.19421 17.9286L9.19441 17.9282L6.07273 14.8061Z" fill="black"/>
<path d="M22.046 5.07622L18.9245 1.95474L14.806 6.07306L17.9279 9.19495L22.046 5.07622ZM18.9245 2.49475L21.506 5.07622L17.9279 8.65495L15.346 6.07286L18.9245 2.49475Z" fill="black"/>
<path d="M0 9.79279H5.82483V14.2082H0V9.79279Z" fill="black"/>
<path d="M18.1755 9.79279L18.1757 14.2084L24 14.2082V9.79315L18.1755 9.79279ZM23.6182 13.8264H18.5579L18.5576 10.1753H23.6184L23.6182 13.8264Z" fill="black"/>
</svg>
